<svg width="1001" height="260" viewBox="0 0 1001 260" fill="none" xmlns="http://www.w3.org/2000/svg">
<g clip-path="url(#clip0)">
<path d="M194.707 149.707C195.098 149.317 195.098 148.683 194.707 148.293L188.343 141.929C187.953 141.538 187.319 141.538 186.929 141.929C186.538 142.319 186.538 142.953 186.929 143.343L192.586 149L186.929 154.657C186.538 155.047 186.538 155.681 186.929 156.071C187.319 156.462 187.953 156.462 188.343 156.071L194.707 149.707ZM135 150L194 150L194 148L135 148L135 150Z" fill="white"/>
<circle cx="71.3435" cy="148.343" r="71.3435" fill="#39435B"/>
<circle cx="71.3435" cy="148.343" r="70.3435" stroke="white" stroke-width="2"/>
<path d="M85.5615 122.687C85.5615 115.128 79.2657 109 71.4993 109C63.7328 109 57.437 115.128 57.437 122.687C57.437 130.247 63.7328 136.375 71.4993 136.375C79.2657 136.375 85.5615 130.247 85.5615 122.687ZM68.2166 143.375C59.5259 138.197 45.449 136.774 38.3651 136.382C35.9848 136.251 34 138.016 34 140.244V172.011C34 174.054 35.6977 175.758 37.8803 175.868C44.2757 176.194 57.2144 177.39 66.1571 181.775C67.5296 182.448 69.157 181.531 69.157 180.082V145.009C69.1556 144.344 68.8172 143.733 68.2166 143.375ZM104.633 136.382C97.551 136.773 83.4727 138.197 74.7834 143.375C74.1828 143.733 73.8444 144.368 73.8444 145.034V180.078C73.8444 181.531 75.4762 182.449 76.8532 181.775C85.7944 177.395 98.7258 176.198 105.12 175.872C107.302 175.761 109 174.057 109 172.014V140.244C108.999 138.016 107.014 136.251 104.633 136.382Z" fill="#FFBA56"/>
<path d="M623.707 149.707C624.098 149.317 624.098 148.683 623.707 148.293L617.343 141.929C616.953 141.538 616.319 141.538 615.929 141.929C615.538 142.319 615.538 142.953 615.929 143.343L621.586 149L615.929 154.657C615.538 155.047 615.538 155.681 615.929 156.071C616.319 156.462 616.953 156.462 617.343 156.071L623.707 149.707ZM562 150L623 150L623 148L562 148L562 150Z" fill="white"/>
<circle cx="500.345" cy="148.345" r="71.345" fill="#39435B"/>
<circle cx="500.344" cy="148.343" r="70.3435" stroke="white" stroke-width="2"/>
<g clip-path="url(#clip1)">
<path d="M479.034 146.748L498.748 127.037L492.285 120.574L483.25 129.609C483.142 129.717 483.014 129.802 482.873 129.861C482.732 129.919 482.581 129.949 482.429 129.949C482.276 129.949 482.125 129.919 481.984 129.861C481.844 129.802 481.716 129.717 481.608 129.609L479.966 127.967C479.512 127.513 479.512 126.777 479.966 126.325L489.001 117.29L484.073 112.36C482.258 110.545 479.317 110.545 477.502 112.36L464.361 125.501C462.547 127.316 462.546 130.258 464.361 132.073L479.034 146.748ZM535.939 129.638C538.687 126.89 538.685 122.436 535.939 119.687L529.31 113.059C526.562 110.311 522.106 110.311 519.357 113.059L512.616 119.799L529.198 136.381L535.939 129.638ZM509.301 123.115L465.795 166.615L463.047 182.354C462.676 184.476 464.525 186.325 466.649 185.951L482.389 183.191L525.883 139.696L509.301 123.115ZM536.639 164.926L531.711 159.999L522.676 169.034C522.222 169.488 521.487 169.488 521.034 169.034L519.392 167.392C518.939 166.937 518.939 166.202 519.392 165.75L528.427 156.714L521.961 150.249L502.247 169.959L516.927 184.637C518.742 186.452 521.683 186.452 523.498 184.637L536.639 171.498C538.454 169.683 538.454 166.741 536.639 164.926Z" fill="#FFBA56"/>
</g>
<path d="M838.707 149.707C839.098 149.317 839.098 148.683 838.707 148.293L832.343 141.929C831.953 141.538 831.319 141.538 830.929 141.929C830.538 142.319 830.538 142.953 830.929 143.343L836.586 149L830.929 154.657C830.538 155.047 830.538 155.681 830.929 156.071C831.319 156.462 831.953 156.462 832.343 156.071L838.707 149.707ZM779 150L838 150L838 148L779 148L779 150Z" fill="white"/>
<circle cx="713.344" cy="148.343" r="71.3435" fill="#39435B"/>
<circle cx="713.344" cy="148.343" r="70.3435" stroke="white" stroke-width="2"/>
<g clip-path="url(#clip2)">
<path d="M751.641 137.078L725.359 110.859C724.875 110.375 724.078 110.375 723.594 110.859L718.281 116.156C717.797 116.641 717.797 117.438 718.281 117.922L720.031 119.656L682.156 157.453C676.094 163.5 675.109 173.391 680.687 179.875C683.906 183.625 688.422 185.5 692.937 185.484C697.062 185.484 701.187 183.922 704.328 180.781L742.812 142.391L744.562 144.125C745.047 144.609 745.844 144.609 746.328 144.125L751.641 138.828C752.125 138.359 752.125 137.562 751.641 137.078ZM726.687 148H702.156L725.281 124.922L737.547 137.156L726.687 148Z" fill="#FFBA56"/>
</g>
<circle cx="929.344" cy="148.343" r="71.3435" fill="#39435B"/>
<circle cx="929.344" cy="148.343" r="70.3435" stroke="white" stroke-width="2"/>
<g clip-path="url(#clip3)">
<path d="M918.071 177.555C918.073 178.477 918.345 179.379 918.856 180.147L921.36 183.91C921.788 184.553 922.368 185.081 923.048 185.446C923.729 185.811 924.49 186.002 925.262 186.002H934.302C935.074 186.002 935.835 185.811 936.516 185.446C937.196 185.081 937.776 184.553 938.204 183.91L940.708 180.147C941.219 179.379 941.492 178.478 941.493 177.555L941.499 171.938H918.064L918.071 177.555ZM904 136.781C904 143.281 906.41 149.211 910.381 153.741C912.801 156.503 916.586 162.271 918.029 167.137C918.035 167.175 918.039 167.214 918.045 167.252H941.518C941.523 167.214 941.528 167.177 941.534 167.137C942.977 162.271 946.762 156.503 949.182 153.741C953.153 149.211 955.562 143.281 955.562 136.781C955.562 122.515 943.977 110.956 929.701 111C914.758 111.046 904 123.154 904 136.781ZM929.781 125.063C923.32 125.063 918.062 130.32 918.062 136.781C918.062 138.076 917.014 139.125 915.719 139.125C914.424 139.125 913.375 138.076 913.375 136.781C913.375 127.735 920.734 120.375 929.781 120.375C931.076 120.375 932.125 121.424 932.125 122.719C932.125 124.014 931.076 125.063 929.781 125.063Z" fill="#FFBA56"/>
</g>
<path d="M409.707 149.707C410.098 149.317 410.098 148.683 409.707 148.293L403.343 141.929C402.953 141.538 402.319 141.538 401.929 141.929C401.538 142.319 401.538 142.953 401.929 143.343L407.586 149L401.929 154.657C401.538 155.047 401.538 155.681 401.929 156.071C402.319 156.462 402.953 156.462 403.343 156.071L409.707 149.707ZM348 150L409 150L409 148L348 148L348 150Z" fill="white"/>
<circle cx="285.344" cy="148.343" r="71.3435" fill="#39435B"/>
<circle cx="285.344" cy="148.343" r="70.3435" stroke="white" stroke-width="2"/>
<g clip-path="url(#clip4)">
<path d="M275.083 114C271.19 114 267.961 116.713 267.036 120.38C266.932 120.38 266.854 120.354 266.75 120.354C262.154 120.354 258.417 124.152 258.417 128.825C258.417 129.46 258.495 130.082 258.638 130.678C254.836 132.266 252.167 136.052 252.167 140.473C252.167 142.141 252.583 143.69 253.247 145.093C250.122 146.919 248 150.308 248 154.239C248 158.647 250.656 162.433 254.432 164.021C254.315 164.63 254.25 165.252 254.25 165.887C254.25 171.155 258.443 175.418 263.625 175.418C264.159 175.418 264.68 175.351 265.188 175.259C266.438 179.031 269.901 181.771 274.042 181.771C279.224 181.771 283.417 177.509 283.417 172.241V122.471C283.417 117.799 279.68 114 275.083 114ZM323 154.239C323 150.308 320.878 146.919 317.753 145.093C318.43 143.69 318.833 142.141 318.833 140.473C318.833 136.052 316.164 132.266 312.362 130.678C312.492 130.082 312.583 129.46 312.583 128.825C312.583 124.152 308.846 120.354 304.25 120.354C304.146 120.354 304.055 120.38 303.964 120.38C303.039 116.713 299.81 114 295.917 114C291.32 114 287.583 117.786 287.583 122.471V172.241C287.583 177.509 291.776 181.771 296.958 181.771C301.099 181.771 304.562 179.031 305.812 175.259C306.32 175.351 306.841 175.418 307.375 175.418C312.557 175.418 316.75 171.155 316.75 165.887C316.75 165.252 316.685 164.63 316.568 164.021C320.344 162.433 323 158.647 323 154.239Z" fill="#FFBA56"/>
</g>
<path fill-rule="evenodd" clip-rule="evenodd" d="M277.415 239.657L283.779 233.293C284.17 232.902 284.803 232.902 285.194 233.293L291.557 239.657C291.948 240.047 291.948 240.681 291.557 241.071C291.167 241.462 290.534 241.462 290.143 241.071L285.486 236.414L285.486 257.958H283.486L283.486 236.414L278.83 241.071C278.439 241.462 277.806 241.462 277.415 241.071C277.025 240.681 277.025 240.047 277.415 239.657ZM926.53 241.659L932.894 235.295C933.284 234.905 933.917 234.905 934.308 235.295L940.672 241.659C941.062 242.05 941.062 242.683 940.672 243.074C940.281 243.464 939.648 243.464 939.258 243.074L934.601 238.417V258.003H932.601V238.417L927.944 243.074C927.553 243.464 926.92 243.464 926.53 243.074C926.139 242.683 926.139 242.05 926.53 241.659ZM285.515 260.003H932.572V258.003H285.515V260.003Z" fill="white"/>
<path fill-rule="evenodd" clip-rule="evenodd" d="M285.515 256.002C284.379 256.002 283.458 256.897 283.458 258.002C283.458 259.107 284.379 260.002 285.515 260.002C286.651 260.002 287.573 259.107 287.573 258.002C287.573 258.002 287.573 258.002 287.573 258.002C286.436 258.002 285.515 257.107 285.515 256.002Z" fill="white"/>
<path fill-rule="evenodd" clip-rule="evenodd" d="M932.572 256.002C933.708 256.002 934.629 256.897 934.629 258.002C934.629 259.107 933.708 260.002 932.572 260.002C931.436 260.002 930.515 259.107 930.515 258.002C930.515 258.002 930.515 258.002 930.515 258.002C931.651 258.002 932.572 257.107 932.572 256.002Z" fill="white"/>
<path d="M15.3103 26V6.12H24.1023C25.0169 6.12 25.8569 6.316 26.6223 6.708C27.4063 7.08133 28.0783 7.58533 28.6383 8.22C29.1983 8.836 29.6369 9.54533 29.9543 10.348C30.2716 11.132 30.4303 11.9253 30.4303 12.728C30.4303 14.016 30.1036 15.192 29.4503 16.256C28.8156 17.3013 27.9476 18.0573 26.8463 18.524L31.3823 26H27.0423L22.9823 19.336H19.1743V26H15.3103ZM19.1743 15.948H24.0183C24.3729 15.948 24.6996 15.864 24.9983 15.696C25.3156 15.528 25.5863 15.304 25.8103 15.024C26.0343 14.7253 26.2116 14.38 26.3423 13.988C26.4729 13.596 26.5383 13.176 26.5383 12.728C26.5383 12.2613 26.4636 11.832 26.3143 11.44C26.1649 11.048 25.9596 10.712 25.6983 10.432C25.4556 10.1333 25.1663 9.90933 24.8303 9.76C24.5129 9.592 24.1863 9.508 23.8503 9.508H19.1743V15.948ZM39.9612 26.28C38.7852 26.28 37.7212 26.084 36.7692 25.692C35.8172 25.2813 35.0052 24.7307 34.3332 24.04C33.6612 23.3493 33.1386 22.5467 32.7652 21.632C32.4106 20.7173 32.2332 19.756 32.2332 18.748C32.2332 17.7027 32.4106 16.7227 32.7652 15.808C33.1199 14.8747 33.6332 14.0627 34.3052 13.372C34.9772 12.6627 35.7892 12.1027 36.7412 11.692C37.7119 11.2813 38.7946 11.076 39.9892 11.076C41.1839 11.076 42.2479 11.2813 43.1812 11.692C44.1332 12.1027 44.9359 12.6533 45.5892 13.344C46.2612 14.0347 46.7652 14.8373 47.1012 15.752C47.4559 16.6667 47.6332 17.6187 47.6332 18.608C47.6332 18.8507 47.6239 19.084 47.6052 19.308C47.6052 19.532 47.5866 19.7187 47.5492 19.868H36.2092C36.2652 20.4467 36.4052 20.96 36.6292 21.408C36.8532 21.856 37.1426 22.2387 37.4972 22.556C37.8519 22.8733 38.2532 23.116 38.7012 23.284C39.1492 23.452 39.6159 23.536 40.1012 23.536C40.8479 23.536 41.5479 23.3587 42.2012 23.004C42.8732 22.6307 43.3306 22.1453 43.5732 21.548L46.7932 22.444C46.2519 23.564 45.3839 24.488 44.1892 25.216C43.0132 25.9253 41.6039 26.28 39.9612 26.28ZM43.7692 17.432C43.6759 16.3307 43.2652 15.4533 42.5372 14.8C41.8279 14.128 40.9599 13.792 39.9332 13.792C39.4292 13.792 38.9532 13.8853 38.5052 14.072C38.0759 14.24 37.6932 14.4827 37.3572 14.8C37.0212 15.1173 36.7412 15.5 36.5172 15.948C36.3119 16.396 36.1906 16.8907 36.1532 17.432H43.7692ZM55.4629 26.28C54.2309 26.28 53.0269 26.084 51.8509 25.692C50.6749 25.3 49.6669 24.74 48.8269 24.012L50.2269 21.66C51.1229 22.2947 51.9909 22.78 52.8309 23.116C53.6896 23.4333 54.5389 23.592 55.3789 23.592C56.1256 23.592 56.7136 23.452 57.1429 23.172C57.5723 22.892 57.7869 22.4907 57.7869 21.968C57.7869 21.4453 57.5349 21.0627 57.0309 20.82C56.5269 20.5773 55.7056 20.2973 54.5669 19.98C53.6149 19.7187 52.8029 19.4667 52.1309 19.224C51.4589 18.9813 50.9176 18.7107 50.5069 18.412C50.0963 18.0947 49.7976 17.74 49.6109 17.348C49.4243 16.9373 49.3309 16.452 49.3309 15.892C49.3309 15.1453 49.4709 14.4733 49.7509 13.876C50.0496 13.2787 50.4603 12.7747 50.9829 12.364C51.5056 11.9347 52.1123 11.608 52.8029 11.384C53.5123 11.16 54.2776 11.048 55.0989 11.048C56.2003 11.048 57.2269 11.2067 58.1789 11.524C59.1496 11.8413 60.0363 12.3547 60.8389 13.064L59.3269 15.332C58.5803 14.772 57.8523 14.3613 57.1429 14.1C56.4523 13.8387 55.7616 13.708 55.0709 13.708C54.4363 13.708 53.9043 13.8387 53.4749 14.1C53.0456 14.3613 52.8309 14.7813 52.8309 15.36C52.8309 15.6213 52.8776 15.836 52.9709 16.004C53.0829 16.172 53.2509 16.3213 53.4749 16.452C53.6989 16.5827 53.9883 16.7133 54.3429 16.844C54.7163 16.956 55.1736 17.0773 55.7149 17.208C56.7229 17.4693 57.5816 17.7307 58.2909 17.992C59.0189 18.2533 59.6069 18.552 60.0549 18.888C60.5216 19.224 60.8576 19.616 61.0629 20.064C61.2869 20.4933 61.3989 21.016 61.3989 21.632C61.3989 23.0693 60.8669 24.208 59.8029 25.048C58.7389 25.8693 57.2923 26.28 55.4629 26.28ZM70.6409 26.28C69.4649 26.28 68.4009 26.084 67.4489 25.692C66.4969 25.2813 65.6849 24.7307 65.0129 24.04C64.3409 23.3493 63.8182 22.5467 63.4449 21.632C63.0902 20.7173 62.9129 19.756 62.9129 18.748C62.9129 17.7027 63.0902 16.7227 63.4449 15.808C63.7996 14.8747 64.3129 14.0627 64.9849 13.372C65.6569 12.6627 66.4689 12.1027 67.4209 11.692C68.3916 11.2813 69.4742 11.076 70.6689 11.076C71.8636 11.076 72.9276 11.2813 73.8609 11.692C74.8129 12.1027 75.6156 12.6533 76.2689 13.344C76.9409 14.0347 77.4449 14.8373 77.7809 15.752C78.1356 16.6667 78.3129 17.6187 78.3129 18.608C78.3129 18.8507 78.3036 19.084 78.2849 19.308C78.2849 19.532 78.2662 19.7187 78.2289 19.868H66.8889C66.9449 20.4467 67.0849 20.96 67.3089 21.408C67.5329 21.856 67.8222 22.2387 68.1769 22.556C68.5316 22.8733 68.9329 23.116 69.3809 23.284C69.8289 23.452 70.2956 23.536 70.7809 23.536C71.5276 23.536 72.2276 23.3587 72.8809 23.004C73.5529 22.6307 74.0102 22.1453 74.2529 21.548L77.4729 22.444C76.9316 23.564 76.0636 24.488 74.8689 25.216C73.6929 25.9253 72.2836 26.28 70.6409 26.28ZM74.4489 17.432C74.3556 16.3307 73.9449 15.4533 73.2169 14.8C72.5076 14.128 71.6396 13.792 70.6129 13.792C70.1089 13.792 69.6329 13.8853 69.1849 14.072C68.7556 14.24 68.3729 14.4827 68.0369 14.8C67.7009 15.1173 67.4209 15.5 67.1969 15.948C66.9916 16.396 66.8702 16.8907 66.8329 17.432H74.4489ZM84.6026 26.28C83.8933 26.28 83.2306 26.168 82.6146 25.944C81.9986 25.7013 81.4666 25.3747 81.0186 24.964C80.5706 24.5347 80.216 24.04 79.9546 23.48C79.712 22.92 79.5906 22.304 79.5906 21.632C79.5906 20.9413 79.74 20.3067 80.0386 19.728C80.356 19.1307 80.7853 18.6267 81.3266 18.216C81.8866 17.8053 82.5493 17.488 83.3146 17.264C84.08 17.0213 84.92 16.9 85.8346 16.9C86.488 16.9 87.1226 16.956 87.7386 17.068C88.3733 17.18 88.9333 17.3387 89.4186 17.544V16.704C89.4186 15.7333 89.1386 14.9867 88.5786 14.464C88.0373 13.9413 87.2253 13.68 86.1426 13.68C85.3586 13.68 84.5933 13.82 83.8466 14.1C83.1 14.38 82.3346 14.7907 81.5506 15.332L80.4026 12.952C82.288 11.7013 84.3226 11.076 86.5066 11.076C88.616 11.076 90.2493 11.5987 91.4066 12.644C92.5826 13.6707 93.1706 15.164 93.1706 17.124V21.688C93.1706 22.08 93.236 22.36 93.3666 22.528C93.516 22.696 93.7493 22.7893 94.0666 22.808V26C93.432 26.1307 92.8813 26.196 92.4146 26.196C91.7053 26.196 91.1546 26.0373 90.7626 25.72C90.3893 25.4027 90.156 24.9827 90.0626 24.46L89.9786 23.648C89.3253 24.5067 88.532 25.16 87.5986 25.608C86.6653 26.056 85.6666 26.28 84.6026 26.28ZM85.6666 23.536C86.3013 23.536 86.8986 23.424 87.4586 23.2C88.0373 22.976 88.4853 22.6773 88.8026 22.304C89.2133 21.9867 89.4186 21.632 89.4186 21.24V19.56C88.9706 19.392 88.4853 19.2613 87.9626 19.168C87.44 19.056 86.936 19 86.4506 19C85.48 19 84.6866 19.224 84.0706 19.672C83.4546 20.1013 83.1466 20.652 83.1466 21.324C83.1466 21.9587 83.3893 22.4907 83.8746 22.92C84.36 23.3307 84.9573 23.536 85.6666 23.536ZM105.413 14.576C104.274 14.5947 103.257 14.8187 102.361 15.248C101.465 15.6587 100.821 16.284 100.429 17.124V26H96.6768V11.328H100.121V14.464C100.382 13.96 100.69 13.512 101.045 13.12C101.399 12.7093 101.782 12.3547 102.193 12.056C102.603 11.7573 103.014 11.5333 103.425 11.384C103.854 11.216 104.265 11.132 104.657 11.132C104.862 11.132 105.011 11.132 105.105 11.132C105.217 11.132 105.319 11.1413 105.413 11.16V14.576ZM105.843 18.664C105.843 17.6373 106.02 16.6667 106.375 15.752C106.729 14.8373 107.243 14.0347 107.915 13.344C108.587 12.6533 109.399 12.1027 110.351 11.692C111.303 11.2813 112.376 11.076 113.571 11.076C115.176 11.076 116.539 11.4213 117.659 12.112C118.797 12.8027 119.647 13.708 120.207 14.828L116.539 15.948C116.221 15.4067 115.801 14.996 115.279 14.716C114.756 14.4173 114.177 14.268 113.543 14.268C113.001 14.268 112.497 14.38 112.031 14.604C111.564 14.8093 111.153 15.108 110.799 15.5C110.463 15.8733 110.192 16.3307 109.987 16.872C109.8 17.4133 109.707 18.0107 109.707 18.664C109.707 19.3173 109.809 19.9147 110.015 20.456C110.22 20.9973 110.491 21.464 110.827 21.856C111.181 22.248 111.592 22.556 112.059 22.78C112.525 22.9853 113.02 23.088 113.543 23.088C114.215 23.088 114.831 22.92 115.391 22.584C115.969 22.248 116.371 21.8373 116.595 21.352L120.263 22.472C119.759 23.592 118.928 24.5067 117.771 25.216C116.613 25.9253 115.223 26.28 113.599 26.28C112.404 26.28 111.331 26.0747 110.379 25.664C109.427 25.2533 108.615 24.7027 107.943 24.012C107.271 23.3027 106.748 22.4907 106.375 21.576C106.02 20.6427 105.843 19.672 105.843 18.664ZM136.207 26H132.455V17.768C132.455 16.6107 132.241 15.7613 131.811 15.22C131.382 14.66 130.775 14.38 129.991 14.38C129.655 14.38 129.301 14.4547 128.927 14.604C128.554 14.7533 128.199 14.968 127.863 15.248C127.527 15.5093 127.219 15.8267 126.939 16.2C126.659 16.5733 126.454 16.984 126.323 17.432V26H122.571V5.56H126.323V14.044C126.865 13.092 127.593 12.364 128.507 11.86C129.441 11.3373 130.467 11.076 131.587 11.076C132.539 11.076 133.314 11.244 133.911 11.58C134.509 11.8973 134.975 12.3267 135.311 12.868C135.647 13.4093 135.881 14.0253 136.011 14.716C136.142 15.4067 136.207 16.116 136.207 16.844V26ZM42.0562 47.18C41.6122 47.18 41.1982 47.108 40.8142 46.964C40.4302 46.808 40.0942 46.598 39.8062 46.334C39.5302 46.07 39.3082 45.764 39.1402 45.416C38.9842 45.056 38.9062 44.666 38.9062 44.246C38.9062 43.814 39.0022 43.424 39.1942 43.076C39.3862 42.716 39.6562 42.41 40.0042 42.158C40.3642 41.906 40.7842 41.708 41.2642 41.564C41.7562 41.42 42.2902 41.348 42.8662 41.348C43.3222 41.348 43.7842 41.39 44.2522 41.474C44.7202 41.558 45.1342 41.672 45.4942 41.816V41.06C45.4942 40.292 45.2782 39.692 44.8462 39.26C44.4142 38.816 43.8022 38.594 43.0102 38.594C42.0622 38.594 41.0662 38.96 40.0222 39.692L39.5002 38.666C40.7122 37.85 41.9302 37.442 43.1542 37.442C44.3902 37.442 45.3502 37.772 46.0342 38.432C46.7302 39.092 47.0782 40.022 47.0782 41.222V45.056C47.0782 45.428 47.2462 45.62 47.5822 45.632V47C47.4142 47.024 47.2762 47.042 47.1682 47.054C47.0602 47.066 46.9462 47.072 46.8262 47.072C46.5142 47.072 46.2622 46.982 46.0702 46.802C45.8902 46.61 45.7822 46.382 45.7462 46.118L45.7102 45.452C45.2902 46.016 44.7562 46.448 44.1082 46.748C43.4722 47.036 42.7882 47.18 42.0562 47.18ZM42.4702 45.992C43.0342 45.992 43.5562 45.89 44.0362 45.686C44.5282 45.47 44.9002 45.188 45.1522 44.84C45.3802 44.612 45.4942 44.378 45.4942 44.138V42.752C44.7262 42.452 43.9282 42.302 43.1002 42.302C42.3082 42.302 41.6602 42.47 41.1562 42.806C40.6642 43.142 40.4182 43.58 40.4182 44.12C40.4182 44.384 40.4662 44.63 40.5622 44.858C40.6702 45.086 40.8142 45.284 40.9942 45.452C41.1862 45.62 41.4082 45.752 41.6602 45.848C41.9122 45.944 42.1822 45.992 42.4702 45.992ZM57.765 47H56.181V41.744C56.181 40.736 56.025 40.004 55.713 39.548C55.413 39.092 54.951 38.864 54.327 38.864C54.003 38.864 53.679 38.93 53.355 39.062C53.031 39.182 52.725 39.35 52.437 39.566C52.149 39.782 51.897 40.04 51.681 40.34C51.465 40.64 51.303 40.97 51.195 41.33V47H49.611V37.604H51.051V39.62C51.423 38.96 51.957 38.432 52.653 38.036C53.361 37.64 54.129 37.442 54.957 37.442C55.497 37.442 55.947 37.544 56.307 37.748C56.667 37.94 56.955 38.216 57.171 38.576C57.387 38.924 57.537 39.338 57.621 39.818C57.717 40.298 57.765 40.82 57.765 41.384V47ZM64.0982 47.18C63.4502 47.18 62.8502 47.048 62.2982 46.784C61.7462 46.52 61.2722 46.166 60.8762 45.722C60.4802 45.278 60.1682 44.762 59.9402 44.174C59.7242 43.586 59.6162 42.968 59.6162 42.32C59.6162 41.66 59.7182 41.036 59.9222 40.448C60.1382 39.848 60.4322 39.326 60.8042 38.882C61.1882 38.438 61.6382 38.09 62.1542 37.838C62.6822 37.574 63.2582 37.442 63.8822 37.442C64.6382 37.442 65.3102 37.64 65.8982 38.036C66.4982 38.432 66.9722 38.912 67.3202 39.476V33.86H68.9042V45.056C68.9042 45.428 69.0722 45.62 69.4082 45.632V47C69.2402 47.024 69.1022 47.042 68.9942 47.054C68.8982 47.066 68.8022 47.072 68.7062 47.072C68.3942 47.072 68.1182 46.97 67.8782 46.766C67.6502 46.55 67.5362 46.304 67.5362 46.028V45.236C67.1642 45.848 66.6662 46.328 66.0422 46.676C65.4302 47.012 64.7822 47.18 64.0982 47.18ZM64.4762 45.812C64.7642 45.812 65.0582 45.758 65.3582 45.65C65.6702 45.542 65.9582 45.392 66.2222 45.2C66.4982 45.008 66.7322 44.786 66.9242 44.534C67.1282 44.27 67.2602 43.994 67.3202 43.706V41.006C67.2122 40.706 67.0502 40.424 66.8342 40.16C66.6182 39.884 66.3722 39.65 66.0962 39.458C65.8322 39.254 65.5442 39.098 65.2322 38.99C64.9322 38.87 64.6322 38.81 64.3322 38.81C63.8642 38.81 63.4382 38.912 63.0542 39.116C62.6822 39.308 62.3582 39.572 62.0822 39.908C61.8182 40.232 61.6142 40.61 61.4702 41.042C61.3262 41.462 61.2542 41.894 61.2542 42.338C61.2542 42.806 61.3382 43.256 61.5062 43.688C61.6742 44.108 61.9022 44.474 62.1902 44.786C62.4782 45.098 62.8142 45.35 63.1982 45.542C63.5942 45.722 64.0202 45.812 64.4762 45.812ZM90.2672 47H88.6832V41.744C88.6832 40.76 88.5212 40.034 88.1972 39.566C87.8852 39.098 87.4172 38.864 86.7932 38.864C86.1452 38.864 85.5632 39.098 85.0472 39.566C84.5432 40.022 84.1832 40.616 83.9672 41.348V47H82.3832V41.744C82.3832 40.736 82.2272 40.004 81.9152 39.548C81.6032 39.092 81.1352 38.864 80.5112 38.864C79.8752 38.864 79.2992 39.092 78.7832 39.548C78.2672 39.992 77.9012 40.586 77.6852 41.33V47H76.1012V37.604H77.5412V39.62C77.9252 38.924 78.4232 38.39 79.0352 38.018C79.6472 37.634 80.3372 37.442 81.1052 37.442C81.8972 37.442 82.5212 37.658 82.9772 38.09C83.4452 38.51 83.7332 39.056 83.8412 39.728C84.6812 38.204 85.8752 37.442 87.4232 37.442C87.9632 37.442 88.4132 37.544 88.7732 37.748C89.1452 37.94 89.4392 38.216 89.6552 38.576C89.8712 38.924 90.0272 39.338 90.1232 39.818C90.2192 40.298 90.2672 40.82 90.2672 41.384V47ZM95.1421 47.18C94.6981 47.18 94.2841 47.108 93.9001 46.964C93.5161 46.808 93.1801 46.598 92.8921 46.334C92.6161 46.07 92.3941 45.764 92.2261 45.416C92.0701 45.056 91.9921 44.666 91.9921 44.246C91.9921 43.814 92.0881 43.424 92.2801 43.076C92.4721 42.716 92.7421 42.41 93.0901 42.158C93.4501 41.906 93.8701 41.708 94.3501 41.564C94.8421 41.42 95.3761 41.348 95.9521 41.348C96.4081 41.348 96.8701 41.39 97.3381 41.474C97.8061 41.558 98.2201 41.672 98.5801 41.816V41.06C98.5801 40.292 98.3641 39.692 97.9321 39.26C97.5001 38.816 96.8881 38.594 96.0961 38.594C95.1481 38.594 94.1521 38.96 93.1081 39.692L92.5861 38.666C93.7981 37.85 95.0161 37.442 96.2401 37.442C97.4761 37.442 98.4361 37.772 99.1201 38.432C99.8161 39.092 100.164 40.022 100.164 41.222V45.056C100.164 45.428 100.332 45.62 100.668 45.632V47C100.5 47.024 100.362 47.042 100.254 47.054C100.146 47.066 100.032 47.072 99.9121 47.072C99.6001 47.072 99.3481 46.982 99.1561 46.802C98.9761 46.61 98.8681 46.382 98.8321 46.118L98.7961 45.452C98.3761 46.016 97.8421 46.448 97.1941 46.748C96.5581 47.036 95.8741 47.18 95.1421 47.18ZM95.5561 45.992C96.1201 45.992 96.6421 45.89 97.1221 45.686C97.6141 45.47 97.9861 45.188 98.2381 44.84C98.4661 44.612 98.5801 44.378 98.5801 44.138V42.752C97.8121 42.452 97.0141 42.302 96.1861 42.302C95.3941 42.302 94.7461 42.47 94.2421 42.806C93.7501 43.142 93.5041 43.58 93.5041 44.12C93.5041 44.384 93.5521 44.63 93.6481 44.858C93.7561 45.086 93.9001 45.284 94.0801 45.452C94.2721 45.62 94.4941 45.752 94.7461 45.848C94.9981 45.944 95.2681 45.992 95.5561 45.992ZM107.755 47.18C106.975 47.18 106.285 46.988 105.685 46.604C105.097 46.22 104.629 45.734 104.281 45.146V50.834H102.697V37.604H104.101V39.368C104.473 38.792 104.953 38.33 105.541 37.982C106.141 37.622 106.801 37.442 107.521 37.442C108.169 37.442 108.763 37.574 109.303 37.838C109.843 38.102 110.311 38.462 110.707 38.918C111.103 39.362 111.409 39.878 111.625 40.466C111.853 41.054 111.967 41.666 111.967 42.302C111.967 42.974 111.865 43.61 111.661 44.21C111.457 44.798 111.169 45.314 110.797 45.758C110.425 46.19 109.981 46.538 109.465 46.802C108.949 47.054 108.379 47.18 107.755 47.18ZM107.269 45.812C107.737 45.812 108.157 45.716 108.529 45.524C108.913 45.32 109.237 45.056 109.501 44.732C109.777 44.396 109.987 44.018 110.131 43.598C110.275 43.178 110.347 42.746 110.347 42.302C110.347 41.834 110.263 41.39 110.095 40.97C109.927 40.538 109.699 40.166 109.411 39.854C109.123 39.53 108.781 39.278 108.385 39.098C108.001 38.906 107.581 38.81 107.125 38.81C106.837 38.81 106.537 38.87 106.225 38.99C105.925 39.098 105.637 39.248 105.361 39.44C105.097 39.62 104.863 39.842 104.659 40.106C104.467 40.358 104.341 40.628 104.281 40.916V43.598C104.413 43.91 104.581 44.204 104.785 44.48C104.989 44.744 105.223 44.978 105.487 45.182C105.751 45.374 106.033 45.53 106.333 45.65C106.633 45.758 106.945 45.812 107.269 45.812Z" fill="white"/>
<path d="M268.499 9.508H262.143V26H258.307V9.508H251.951V6.12H268.499V9.508ZM284.239 26H280.487V17.768C280.487 16.6107 280.272 15.7613 279.843 15.22C279.413 14.66 278.807 14.38 278.023 14.38C277.687 14.38 277.332 14.4547 276.959 14.604C276.585 14.7533 276.231 14.968 275.895 15.248C275.559 15.5093 275.251 15.8267 274.971 16.2C274.691 16.5733 274.485 16.984 274.355 17.432V26H270.603V5.56H274.355V14.044C274.896 13.092 275.624 12.364 276.539 11.86C277.472 11.3373 278.499 11.076 279.619 11.076C280.571 11.076 281.345 11.244 281.943 11.58C282.54 11.8973 283.007 12.3267 283.343 12.868C283.679 13.4093 283.912 14.0253 284.043 14.716C284.173 15.4067 284.239 16.116 284.239 16.844V26ZM287.501 26V11.328H291.253V26H287.501ZM287.501 9.284V5.56H291.253V9.284H287.501ZM308.274 26H304.522V17.768C304.522 16.592 304.316 15.7333 303.906 15.192C303.495 14.6507 302.926 14.38 302.198 14.38C301.824 14.38 301.442 14.4547 301.05 14.604C300.658 14.7533 300.284 14.968 299.93 15.248C299.594 15.5093 299.286 15.8267 299.006 16.2C298.726 16.5733 298.52 16.984 298.39 17.432V26H294.638V11.328H298.026V14.044C298.567 13.1107 299.351 12.3827 300.378 11.86C301.404 11.3373 302.562 11.076 303.85 11.076C304.764 11.076 305.511 11.244 306.09 11.58C306.668 11.916 307.116 12.3547 307.434 12.896C307.751 13.4373 307.966 14.0533 308.078 14.744C308.208 15.4347 308.274 16.1347 308.274 16.844V26ZM321.56 26L317.304 19.644L315.288 21.632V26H311.536V5.56H315.288V17.964L321.168 11.356H325.172L319.712 17.572L325.564 26H321.56ZM251.725 47.18C251.281 47.18 250.867 47.108 250.483 46.964C250.099 46.808 249.763 46.598 249.475 46.334C249.199 46.07 248.977 45.764 248.809 45.416C248.653 45.056 248.575 44.666 248.575 44.246C248.575 43.814 248.671 43.424 248.863 43.076C249.055 42.716 249.325 42.41 249.673 42.158C250.033 41.906 250.453 41.708 250.933 41.564C251.425 41.42 251.959 41.348 252.535 41.348C252.991 41.348 253.453 41.39 253.921 41.474C254.389 41.558 254.803 41.672 255.163 41.816V41.06C255.163 40.292 254.947 39.692 254.515 39.26C254.083 38.816 253.471 38.594 252.679 38.594C251.731 38.594 250.735 38.96 249.691 39.692L249.169 38.666C250.381 37.85 251.599 37.442 252.823 37.442C254.059 37.442 255.019 37.772 255.703 38.432C256.399 39.092 256.747 40.022 256.747 41.222V45.056C256.747 45.428 256.915 45.62 257.251 45.632V47C257.083 47.024 256.945 47.042 256.837 47.054C256.729 47.066 256.615 47.072 256.495 47.072C256.183 47.072 255.931 46.982 255.739 46.802C255.559 46.61 255.451 46.382 255.415 46.118L255.379 45.452C254.959 46.016 254.425 46.448 253.777 46.748C253.141 47.036 252.457 47.18 251.725 47.18ZM252.139 45.992C252.703 45.992 253.225 45.89 253.705 45.686C254.197 45.47 254.569 45.188 254.821 44.84C255.049 44.612 255.163 44.378 255.163 44.138V42.752C254.395 42.452 253.597 42.302 252.769 42.302C251.977 42.302 251.329 42.47 250.825 42.806C250.333 43.142 250.087 43.58 250.087 44.12C250.087 44.384 250.135 44.63 250.231 44.858C250.339 45.086 250.483 45.284 250.663 45.452C250.855 45.62 251.077 45.752 251.329 45.848C251.581 45.944 251.851 45.992 252.139 45.992ZM267.434 47H265.85V41.744C265.85 40.736 265.694 40.004 265.382 39.548C265.082 39.092 264.62 38.864 263.996 38.864C263.672 38.864 263.348 38.93 263.024 39.062C262.7 39.182 262.394 39.35 262.106 39.566C261.818 39.782 261.566 40.04 261.35 40.34C261.134 40.64 260.972 40.97 260.864 41.33V47H259.28V37.604H260.72V39.62C261.092 38.96 261.626 38.432 262.322 38.036C263.03 37.64 263.798 37.442 264.626 37.442C265.166 37.442 265.616 37.544 265.976 37.748C266.336 37.94 266.624 38.216 266.84 38.576C267.056 38.924 267.206 39.338 267.29 39.818C267.386 40.298 267.434 40.82 267.434 41.384V47ZM273.767 47.18C273.119 47.18 272.519 47.048 271.967 46.784C271.415 46.52 270.941 46.166 270.545 45.722C270.149 45.278 269.837 44.762 269.609 44.174C269.393 43.586 269.285 42.968 269.285 42.32C269.285 41.66 269.387 41.036 269.591 40.448C269.807 39.848 270.101 39.326 270.473 38.882C270.857 38.438 271.307 38.09 271.823 37.838C272.351 37.574 272.927 37.442 273.551 37.442C274.307 37.442 274.979 37.64 275.567 38.036C276.167 38.432 276.641 38.912 276.989 39.476V33.86H278.573V45.056C278.573 45.428 278.741 45.62 279.077 45.632V47C278.909 47.024 278.771 47.042 278.663 47.054C278.567 47.066 278.471 47.072 278.375 47.072C278.063 47.072 277.787 46.97 277.547 46.766C277.319 46.55 277.205 46.304 277.205 46.028V45.236C276.833 45.848 276.335 46.328 275.711 46.676C275.099 47.012 274.451 47.18 273.767 47.18ZM274.145 45.812C274.433 45.812 274.727 45.758 275.027 45.65C275.339 45.542 275.627 45.392 275.891 45.2C276.167 45.008 276.401 44.786 276.593 44.534C276.797 44.27 276.929 43.994 276.989 43.706V41.006C276.881 40.706 276.719 40.424 276.503 40.16C276.287 39.884 276.041 39.65 275.765 39.458C275.501 39.254 275.213 39.098 274.901 38.99C274.601 38.87 274.301 38.81 274.001 38.81C273.533 38.81 273.107 38.912 272.723 39.116C272.351 39.308 272.027 39.572 271.751 39.908C271.487 40.232 271.283 40.61 271.139 41.042C270.995 41.462 270.923 41.894 270.923 42.338C270.923 42.806 271.007 43.256 271.175 43.688C271.343 44.108 271.571 44.474 271.859 44.786C272.147 45.098 272.483 45.35 272.867 45.542C273.263 45.722 273.689 45.812 274.145 45.812ZM289.064 47.18C288.308 47.18 287.564 47.066 286.832 46.838C286.1 46.598 285.47 46.256 284.942 45.812L285.626 44.75C286.178 45.17 286.73 45.488 287.282 45.704C287.834 45.908 288.416 46.01 289.028 46.01C289.712 46.01 290.252 45.878 290.648 45.614C291.056 45.338 291.26 44.954 291.26 44.462C291.26 44.234 291.206 44.042 291.098 43.886C290.99 43.718 290.828 43.574 290.612 43.454C290.396 43.334 290.12 43.226 289.784 43.13C289.448 43.034 289.058 42.932 288.614 42.824C288.05 42.68 287.564 42.542 287.156 42.41C286.748 42.278 286.412 42.122 286.148 41.942C285.884 41.762 285.692 41.546 285.572 41.294C285.452 41.042 285.392 40.73 285.392 40.358C285.392 39.89 285.482 39.476 285.662 39.116C285.854 38.744 286.112 38.438 286.436 38.198C286.76 37.946 287.138 37.76 287.57 37.64C288.014 37.508 288.488 37.442 288.992 37.442C289.7 37.442 290.36 37.556 290.972 37.784C291.584 38.012 292.1 38.312 292.52 38.684L291.8 39.638C291.404 39.29 290.96 39.032 290.468 38.864C289.976 38.684 289.472 38.594 288.956 38.594C288.38 38.594 287.888 38.72 287.48 38.972C287.084 39.212 286.886 39.602 286.886 40.142C286.886 40.358 286.922 40.538 286.994 40.682C287.078 40.826 287.21 40.952 287.39 41.06C287.57 41.168 287.798 41.264 288.074 41.348C288.362 41.432 288.704 41.522 289.1 41.618C289.724 41.762 290.264 41.912 290.72 42.068C291.188 42.212 291.572 42.386 291.872 42.59C292.184 42.794 292.412 43.034 292.556 43.31C292.712 43.586 292.79 43.922 292.79 44.318C292.79 45.194 292.454 45.89 291.782 46.406C291.11 46.922 290.204 47.18 289.064 47.18ZM298.769 47.18C298.061 47.18 297.413 47.048 296.825 46.784C296.249 46.52 295.751 46.166 295.331 45.722C294.923 45.278 294.605 44.762 294.377 44.174C294.149 43.586 294.035 42.968 294.035 42.32C294.035 41.66 294.149 41.036 294.377 40.448C294.617 39.86 294.941 39.344 295.349 38.9C295.769 38.456 296.267 38.102 296.843 37.838C297.431 37.574 298.073 37.442 298.769 37.442C299.465 37.442 300.107 37.574 300.695 37.838C301.283 38.102 301.781 38.456 302.189 38.9C302.609 39.344 302.933 39.86 303.161 40.448C303.401 41.036 303.521 41.66 303.521 42.32C303.521 42.968 303.407 43.586 303.179 44.174C302.951 44.762 302.627 45.278 302.207 45.722C301.787 46.166 301.283 46.52 300.695 46.784C300.119 47.048 299.477 47.18 298.769 47.18ZM295.655 42.338C295.655 42.83 295.733 43.286 295.889 43.706C296.057 44.126 296.279 44.492 296.555 44.804C296.843 45.116 297.173 45.362 297.545 45.542C297.929 45.722 298.337 45.812 298.769 45.812C299.201 45.812 299.603 45.722 299.975 45.542C300.359 45.362 300.695 45.116 300.983 44.804C301.271 44.48 301.493 44.108 301.649 43.688C301.817 43.256 301.901 42.794 301.901 42.302C301.901 41.822 301.817 41.372 301.649 40.952C301.493 40.52 301.271 40.148 300.983 39.836C300.695 39.512 300.359 39.26 299.975 39.08C299.603 38.9 299.201 38.81 298.769 38.81C298.337 38.81 297.929 38.906 297.545 39.098C297.173 39.278 296.843 39.53 296.555 39.854C296.279 40.166 296.057 40.538 295.889 40.97C295.733 41.39 295.655 41.846 295.655 42.338ZM305.476 33.86H307.06V44.57C307.06 44.918 307.15 45.194 307.33 45.398C307.522 45.59 307.786 45.686 308.122 45.686C308.254 45.686 308.41 45.668 308.59 45.632C308.77 45.584 308.938 45.53 309.094 45.47L309.346 46.748C309.082 46.856 308.77 46.946 308.41 47.018C308.05 47.09 307.732 47.126 307.456 47.126C306.844 47.126 306.358 46.952 305.998 46.604C305.65 46.256 305.476 45.77 305.476 45.146V33.86ZM312.957 47L309.249 37.604H310.887L313.857 45.614L316.845 37.604H318.357L314.649 47H312.957ZM323.766 47.18C323.058 47.18 322.41 47.054 321.822 46.802C321.234 46.538 320.73 46.184 320.31 45.74C319.89 45.296 319.56 44.78 319.32 44.192C319.092 43.592 318.978 42.962 318.978 42.302C318.978 41.642 319.092 41.018 319.32 40.43C319.56 39.842 319.89 39.326 320.31 38.882C320.742 38.438 321.252 38.09 321.84 37.838C322.428 37.574 323.076 37.442 323.784 37.442C324.492 37.442 325.134 37.574 325.71 37.838C326.298 38.102 326.796 38.456 327.204 38.9C327.612 39.332 327.924 39.842 328.14 40.43C328.368 41.006 328.482 41.606 328.482 42.23C328.482 42.362 328.476 42.482 328.464 42.59C328.464 42.698 328.458 42.782 328.446 42.842H320.652C320.688 43.31 320.796 43.736 320.976 44.12C321.156 44.504 321.39 44.834 321.678 45.11C321.966 45.386 322.29 45.602 322.65 45.758C323.022 45.914 323.412 45.992 323.82 45.992C324.108 45.992 324.39 45.956 324.666 45.884C324.942 45.8 325.2 45.692 325.44 45.56C325.68 45.428 325.89 45.266 326.07 45.074C326.262 44.882 326.406 44.666 326.502 44.426L327.87 44.804C327.714 45.152 327.498 45.47 327.222 45.758C326.958 46.046 326.646 46.298 326.286 46.514C325.938 46.718 325.548 46.88 325.116 47C324.684 47.12 324.234 47.18 323.766 47.18ZM326.988 41.672C326.952 41.228 326.838 40.82 326.646 40.448C326.466 40.064 326.232 39.74 325.944 39.476C325.668 39.212 325.344 39.008 324.972 38.864C324.6 38.708 324.204 38.63 323.784 38.63C323.364 38.63 322.968 38.708 322.596 38.864C322.224 39.008 321.894 39.218 321.606 39.494C321.33 39.758 321.102 40.076 320.922 40.448C320.754 40.82 320.652 41.228 320.616 41.672H326.988Z" fill="white"/>
<path d="M482.883 20.876C482.883 21.716 482.715 22.4533 482.379 23.088C482.043 23.7227 481.576 24.2547 480.979 24.684C480.4 25.1133 479.719 25.44 478.935 25.664C478.17 25.888 477.348 26 476.471 26H466.867V6.12H477.507C478.198 6.12 478.823 6.26933 479.383 6.568C479.943 6.86667 480.419 7.25867 480.811 7.744C481.203 8.21067 481.502 8.752 481.707 9.368C481.931 9.96533 482.043 10.572 482.043 11.188C482.043 12.1587 481.8 13.0733 481.315 13.932C480.83 14.772 480.12 15.3973 479.187 15.808C480.326 16.144 481.222 16.7507 481.875 17.628C482.547 18.4867 482.883 19.5693 482.883 20.876ZM478.991 20.148C478.991 19.7933 478.926 19.4573 478.795 19.14C478.683 18.804 478.524 18.5147 478.319 18.272C478.114 18.0293 477.871 17.8427 477.591 17.712C477.311 17.5627 477.003 17.488 476.667 17.488H470.731V22.724H476.471C476.826 22.724 477.152 22.6587 477.451 22.528C477.768 22.3973 478.039 22.22 478.263 21.996C478.487 21.7533 478.664 21.4733 478.795 21.156C478.926 20.8387 478.991 20.5027 478.991 20.148ZM470.731 9.424V14.436H475.883C476.536 14.436 477.087 14.212 477.535 13.764C478.002 13.316 478.235 12.7 478.235 11.916C478.235 11.1507 478.02 10.544 477.591 10.096C477.18 9.648 476.667 9.424 476.051 9.424H470.731ZM490.014 26.28C488.502 26.28 487.354 25.7947 486.57 24.824C485.786 23.8533 485.394 22.416 485.394 20.512V11.328H489.146V19.7C489.146 21.9587 489.958 23.088 491.582 23.088C492.31 23.088 493.01 22.8733 493.682 22.444C494.373 21.996 494.933 21.324 495.362 20.428V11.328H499.114V21.688C499.114 22.08 499.18 22.36 499.31 22.528C499.46 22.696 499.693 22.7893 500.01 22.808V26C499.637 26.0747 499.32 26.1213 499.058 26.14C498.816 26.1587 498.592 26.168 498.386 26.168C497.714 26.168 497.164 26.0187 496.734 25.72C496.324 25.4027 496.081 24.9733 496.006 24.432L495.922 23.256C495.269 24.264 494.429 25.02 493.402 25.524C492.376 26.028 491.246 26.28 490.014 26.28ZM502.843 26V11.328H506.595V26H502.843ZM502.843 9.284V5.56H506.595V9.284H502.843ZM509.951 5.56H513.703V21.296C513.703 21.8373 513.834 22.2573 514.095 22.556C514.357 22.8547 514.73 23.004 515.215 23.004C515.439 23.004 515.682 22.9667 515.943 22.892C516.223 22.8173 516.485 22.724 516.727 22.612L517.231 25.468C516.727 25.7107 516.139 25.8973 515.467 26.028C514.795 26.1587 514.189 26.224 513.647 26.224C512.471 26.224 511.557 25.916 510.903 25.3C510.269 24.6653 509.951 23.7693 509.951 22.612V5.56ZM524.942 26.28C523.934 26.28 523.001 26.084 522.142 25.692C521.284 25.3 520.546 24.7587 519.93 24.068C519.314 23.3773 518.829 22.5747 518.474 21.66C518.138 20.7267 517.97 19.728 517.97 18.664C517.97 17.6 518.129 16.6107 518.446 15.696C518.782 14.7813 519.24 13.9787 519.818 13.288C520.397 12.5973 521.088 12.056 521.89 11.664C522.693 11.272 523.57 11.076 524.522 11.076C525.605 11.076 526.576 11.3373 527.434 11.86C528.312 12.3827 528.993 13.064 529.478 13.904V5.56H533.23V21.688C533.23 22.08 533.296 22.36 533.426 22.528C533.557 22.696 533.781 22.7893 534.098 22.808V26C533.445 26.1307 532.913 26.196 532.502 26.196C531.83 26.196 531.28 26.028 530.85 25.692C530.421 25.356 530.178 24.9173 530.122 24.376L530.038 23.452C529.497 24.3853 528.76 25.0947 527.826 25.58C526.912 26.0467 525.95 26.28 524.942 26.28ZM525.922 23.088C526.277 23.088 526.641 23.032 527.014 22.92C527.388 22.7893 527.733 22.612 528.05 22.388C528.368 22.164 528.648 21.9027 528.89 21.604C529.152 21.3053 529.348 20.9787 529.478 20.624V17.124C529.329 16.7133 529.114 16.34 528.834 16.004C528.573 15.6493 528.265 15.3507 527.91 15.108C527.574 14.8467 527.21 14.6413 526.818 14.492C526.445 14.3427 526.072 14.268 525.698 14.268C525.138 14.268 524.616 14.3893 524.13 14.632C523.664 14.8747 523.262 15.2107 522.926 15.64C522.59 16.0507 522.329 16.5267 522.142 17.068C521.956 17.6093 521.862 18.1693 521.862 18.748C521.862 19.364 521.965 19.9333 522.17 20.456C522.376 20.9787 522.656 21.436 523.01 21.828C523.365 22.22 523.785 22.528 524.27 22.752C524.774 22.976 525.325 23.088 525.922 23.088ZM457.038 47.18C456.594 47.18 456.18 47.108 455.796 46.964C455.412 46.808 455.076 46.598 454.788 46.334C454.512 46.07 454.29 45.764 454.122 45.416C453.966 45.056 453.888 44.666 453.888 44.246C453.888 43.814 453.984 43.424 454.176 43.076C454.368 42.716 454.638 42.41 454.986 42.158C455.346 41.906 455.766 41.708 456.246 41.564C456.738 41.42 457.272 41.348 457.848 41.348C458.304 41.348 458.766 41.39 459.234 41.474C459.702 41.558 460.116 41.672 460.476 41.816V41.06C460.476 40.292 460.26 39.692 459.828 39.26C459.396 38.816 458.784 38.594 457.992 38.594C457.044 38.594 456.048 38.96 455.004 39.692L454.482 38.666C455.694 37.85 456.912 37.442 458.136 37.442C459.372 37.442 460.332 37.772 461.016 38.432C461.712 39.092 462.06 40.022 462.06 41.222V45.056C462.06 45.428 462.228 45.62 462.564 45.632V47C462.396 47.024 462.258 47.042 462.15 47.054C462.042 47.066 461.928 47.072 461.808 47.072C461.496 47.072 461.244 46.982 461.052 46.802C460.872 46.61 460.764 46.382 460.728 46.118L460.692 45.452C460.272 46.016 459.738 46.448 459.09 46.748C458.454 47.036 457.77 47.18 457.038 47.18ZM457.452 45.992C458.016 45.992 458.538 45.89 459.018 45.686C459.51 45.47 459.882 45.188 460.134 44.84C460.362 44.612 460.476 44.378 460.476 44.138V42.752C459.708 42.452 458.91 42.302 458.082 42.302C457.29 42.302 456.642 42.47 456.138 42.806C455.646 43.142 455.4 43.58 455.4 44.12C455.4 44.384 455.448 44.63 455.544 44.858C455.652 45.086 455.796 45.284 455.976 45.452C456.168 45.62 456.39 45.752 456.642 45.848C456.894 45.944 457.164 45.992 457.452 45.992ZM472.746 47H471.162V41.744C471.162 40.736 471.006 40.004 470.694 39.548C470.394 39.092 469.932 38.864 469.308 38.864C468.984 38.864 468.66 38.93 468.336 39.062C468.012 39.182 467.706 39.35 467.418 39.566C467.13 39.782 466.878 40.04 466.662 40.34C466.446 40.64 466.284 40.97 466.176 41.33V47H464.592V37.604H466.032V39.62C466.404 38.96 466.938 38.432 467.634 38.036C468.342 37.64 469.11 37.442 469.938 37.442C470.478 37.442 470.928 37.544 471.288 37.748C471.648 37.94 471.936 38.216 472.152 38.576C472.368 38.924 472.518 39.338 472.602 39.818C472.698 40.298 472.746 40.82 472.746 41.384V47ZM479.08 47.18C478.432 47.18 477.832 47.048 477.28 46.784C476.728 46.52 476.254 46.166 475.858 45.722C475.462 45.278 475.15 44.762 474.922 44.174C474.706 43.586 474.598 42.968 474.598 42.32C474.598 41.66 474.7 41.036 474.904 40.448C475.12 39.848 475.414 39.326 475.786 38.882C476.17 38.438 476.62 38.09 477.136 37.838C477.664 37.574 478.24 37.442 478.864 37.442C479.62 37.442 480.292 37.64 480.88 38.036C481.48 38.432 481.954 38.912 482.302 39.476V33.86H483.886V45.056C483.886 45.428 484.054 45.62 484.39 45.632V47C484.222 47.024 484.084 47.042 483.976 47.054C483.88 47.066 483.784 47.072 483.688 47.072C483.376 47.072 483.1 46.97 482.86 46.766C482.632 46.55 482.518 46.304 482.518 46.028V45.236C482.146 45.848 481.648 46.328 481.024 46.676C480.412 47.012 479.764 47.18 479.08 47.18ZM479.458 45.812C479.746 45.812 480.04 45.758 480.34 45.65C480.652 45.542 480.94 45.392 481.204 45.2C481.48 45.008 481.714 44.786 481.906 44.534C482.11 44.27 482.242 43.994 482.302 43.706V41.006C482.194 40.706 482.032 40.424 481.816 40.16C481.6 39.884 481.354 39.65 481.078 39.458C480.814 39.254 480.526 39.098 480.214 38.99C479.914 38.87 479.614 38.81 479.314 38.81C478.846 38.81 478.42 38.912 478.036 39.116C477.664 39.308 477.34 39.572 477.064 39.908C476.8 40.232 476.596 40.61 476.452 41.042C476.308 41.462 476.236 41.894 476.236 42.338C476.236 42.806 476.32 43.256 476.488 43.688C476.656 44.108 476.884 44.474 477.172 44.786C477.46 45.098 477.796 45.35 478.18 45.542C478.576 45.722 479.002 45.812 479.458 45.812ZM494.953 47.18C494.305 47.18 493.705 47.048 493.153 46.784C492.601 46.52 492.127 46.166 491.731 45.722C491.335 45.278 491.023 44.762 490.795 44.174C490.579 43.586 490.471 42.968 490.471 42.32C490.471 41.66 490.573 41.036 490.777 40.448C490.993 39.848 491.287 39.326 491.659 38.882C492.043 38.438 492.493 38.09 493.009 37.838C493.537 37.574 494.113 37.442 494.737 37.442C495.493 37.442 496.165 37.64 496.753 38.036C497.353 38.432 497.827 38.912 498.175 39.476V33.86H499.759V45.056C499.759 45.428 499.927 45.62 500.263 45.632V47C500.095 47.024 499.957 47.042 499.849 47.054C499.753 47.066 499.657 47.072 499.561 47.072C499.249 47.072 498.973 46.97 498.733 46.766C498.505 46.55 498.391 46.304 498.391 46.028V45.236C498.019 45.848 497.521 46.328 496.897 46.676C496.285 47.012 495.637 47.18 494.953 47.18ZM495.331 45.812C495.619 45.812 495.913 45.758 496.213 45.65C496.525 45.542 496.813 45.392 497.077 45.2C497.353 45.008 497.587 44.786 497.779 44.534C497.983 44.27 498.115 43.994 498.175 43.706V41.006C498.067 40.706 497.905 40.424 497.689 40.16C497.473 39.884 497.227 39.65 496.951 39.458C496.687 39.254 496.399 39.098 496.087 38.99C495.787 38.87 495.487 38.81 495.187 38.81C494.719 38.81 494.293 38.912 493.909 39.116C493.537 39.308 493.213 39.572 492.937 39.908C492.673 40.232 492.469 40.61 492.325 41.042C492.181 41.462 492.109 41.894 492.109 42.338C492.109 42.806 492.193 43.256 492.361 43.688C492.529 44.108 492.757 44.474 493.045 44.786C493.333 45.098 493.669 45.35 494.053 45.542C494.449 45.722 494.875 45.812 495.331 45.812ZM506.561 47.18C505.853 47.18 505.205 47.054 504.617 46.802C504.029 46.538 503.525 46.184 503.105 45.74C502.685 45.296 502.355 44.78 502.115 44.192C501.887 43.592 501.773 42.962 501.773 42.302C501.773 41.642 501.887 41.018 502.115 40.43C502.355 39.842 502.685 39.326 503.105 38.882C503.537 38.438 504.047 38.09 504.635 37.838C505.223 37.574 505.871 37.442 506.579 37.442C507.287 37.442 507.929 37.574 508.505 37.838C509.093 38.102 509.591 38.456 509.999 38.9C510.407 39.332 510.719 39.842 510.935 40.43C511.163 41.006 511.277 41.606 511.277 42.23C511.277 42.362 511.271 42.482 511.259 42.59C511.259 42.698 511.253 42.782 511.241 42.842H503.447C503.483 43.31 503.591 43.736 503.771 44.12C503.951 44.504 504.185 44.834 504.473 45.11C504.761 45.386 505.085 45.602 505.445 45.758C505.817 45.914 506.207 45.992 506.615 45.992C506.903 45.992 507.185 45.956 507.461 45.884C507.737 45.8 507.995 45.692 508.235 45.56C508.475 45.428 508.685 45.266 508.865 45.074C509.057 44.882 509.201 44.666 509.297 44.426L510.665 44.804C510.509 45.152 510.293 45.47 510.017 45.758C509.753 46.046 509.441 46.298 509.081 46.514C508.733 46.718 508.343 46.88 507.911 47C507.479 47.12 507.029 47.18 506.561 47.18ZM509.783 41.672C509.747 41.228 509.633 40.82 509.441 40.448C509.261 40.064 509.027 39.74 508.739 39.476C508.463 39.212 508.139 39.008 507.767 38.864C507.395 38.708 506.999 38.63 506.579 38.63C506.159 38.63 505.763 38.708 505.391 38.864C505.019 39.008 504.689 39.218 504.401 39.494C504.125 39.758 503.897 40.076 503.717 40.448C503.549 40.82 503.447 41.228 503.411 41.672H509.783ZM516.332 47.18C515.576 47.18 514.832 47.066 514.1 46.838C513.368 46.598 512.738 46.256 512.21 45.812L512.894 44.75C513.446 45.17 513.998 45.488 514.55 45.704C515.102 45.908 515.684 46.01 516.296 46.01C516.98 46.01 517.52 45.878 517.916 45.614C518.324 45.338 518.528 44.954 518.528 44.462C518.528 44.234 518.474 44.042 518.366 43.886C518.258 43.718 518.096 43.574 517.88 43.454C517.664 43.334 517.388 43.226 517.052 43.13C516.716 43.034 516.326 42.932 515.882 42.824C515.318 42.68 514.832 42.542 514.424 42.41C514.016 42.278 513.68 42.122 513.416 41.942C513.152 41.762 512.96 41.546 512.84 41.294C512.72 41.042 512.66 40.73 512.66 40.358C512.66 39.89 512.75 39.476 512.93 39.116C513.122 38.744 513.38 38.438 513.704 38.198C514.028 37.946 514.406 37.76 514.838 37.64C515.282 37.508 515.756 37.442 516.26 37.442C516.968 37.442 517.628 37.556 518.24 37.784C518.852 38.012 519.368 38.312 519.788 38.684L519.068 39.638C518.672 39.29 518.228 39.032 517.736 38.864C517.244 38.684 516.74 38.594 516.224 38.594C515.648 38.594 515.156 38.72 514.748 38.972C514.352 39.212 514.154 39.602 514.154 40.142C514.154 40.358 514.19 40.538 514.262 40.682C514.346 40.826 514.478 40.952 514.658 41.06C514.838 41.168 515.066 41.264 515.342 41.348C515.63 41.432 515.972 41.522 516.368 41.618C516.992 41.762 517.532 41.912 517.988 42.068C518.456 42.212 518.84 42.386 519.14 42.59C519.452 42.794 519.68 43.034 519.824 43.31C519.98 43.586 520.058 43.922 520.058 44.318C520.058 45.194 519.722 45.89 519.05 46.406C518.378 46.922 517.472 47.18 516.332 47.18ZM521.932 47V37.604H523.516V47H521.932ZM521.932 35.84V33.86H523.516V35.84H521.932ZM529.825 47.108C529.189 47.108 528.601 46.976 528.061 46.712C527.533 46.448 527.077 46.094 526.693 45.65C526.309 45.206 526.009 44.696 525.793 44.12C525.589 43.544 525.487 42.944 525.487 42.32C525.487 41.66 525.589 41.036 525.793 40.448C526.009 39.848 526.309 39.326 526.693 38.882C527.077 38.438 527.533 38.09 528.061 37.838C528.601 37.574 529.195 37.442 529.843 37.442C530.635 37.442 531.319 37.634 531.895 38.018C532.471 38.402 532.957 38.888 533.353 39.476V37.604H534.757V46.892C534.757 47.564 534.631 48.152 534.379 48.656C534.127 49.172 533.785 49.604 533.353 49.952C532.921 50.3 532.411 50.564 531.823 50.744C531.247 50.924 530.629 51.014 529.969 51.014C528.901 51.014 528.031 50.828 527.359 50.456C526.699 50.096 526.147 49.592 525.703 48.944L526.621 48.134C526.993 48.686 527.473 49.1 528.061 49.376C528.649 49.652 529.285 49.79 529.969 49.79C530.401 49.79 530.809 49.73 531.193 49.61C531.589 49.49 531.931 49.31 532.219 49.07C532.507 48.83 532.735 48.53 532.903 48.17C533.083 47.81 533.173 47.384 533.173 46.892V45.236C532.993 45.524 532.777 45.788 532.525 46.028C532.285 46.256 532.021 46.454 531.733 46.622C531.445 46.778 531.139 46.898 530.815 46.982C530.491 47.066 530.161 47.108 529.825 47.108ZM530.311 45.812C530.647 45.812 530.971 45.752 531.283 45.632C531.595 45.512 531.883 45.356 532.147 45.164C532.411 44.96 532.633 44.732 532.813 44.48C532.993 44.228 533.113 43.97 533.173 43.706V41.006C533.041 40.682 532.867 40.388 532.651 40.124C532.447 39.86 532.213 39.632 531.949 39.44C531.685 39.236 531.397 39.08 531.085 38.972C530.785 38.864 530.479 38.81 530.167 38.81C529.687 38.81 529.255 38.912 528.871 39.116C528.499 39.32 528.181 39.59 527.917 39.926C527.653 40.262 527.449 40.646 527.305 41.078C527.161 41.498 527.089 41.924 527.089 42.356C527.089 42.824 527.173 43.268 527.341 43.688C527.509 44.108 527.737 44.474 528.025 44.786C528.313 45.098 528.649 45.35 529.033 45.542C529.429 45.722 529.855 45.812 530.311 45.812ZM545.467 47H543.883V41.744C543.883 40.736 543.727 40.004 543.415 39.548C543.115 39.092 542.653 38.864 542.029 38.864C541.705 38.864 541.381 38.93 541.057 39.062C540.733 39.182 540.427 39.35 540.139 39.566C539.851 39.782 539.599 40.04 539.383 40.34C539.167 40.64 539.005 40.97 538.897 41.33V47H537.313V37.604H538.753V39.62C539.125 38.96 539.659 38.432 540.355 38.036C541.063 37.64 541.831 37.442 542.659 37.442C543.199 37.442 543.649 37.544 544.009 37.748C544.369 37.94 544.657 38.216 544.873 38.576C545.089 38.924 545.239 39.338 545.323 39.818C545.419 40.298 545.467 40.82 545.467 41.384V47Z" fill="white"/>
<path d="M651.496 26V6.12H659.924C660.838 6.12 661.678 6.316 662.444 6.708C663.228 7.08133 663.9 7.58533 664.46 8.22C665.02 8.836 665.458 9.54533 665.776 10.348C666.093 11.132 666.252 11.9253 666.252 12.728C666.252 13.568 666.102 14.3893 665.804 15.192C665.505 15.976 665.085 16.676 664.544 17.292C664.002 17.908 663.349 18.4027 662.584 18.776C661.818 19.1493 660.978 19.336 660.064 19.336H655.36V26H651.496ZM655.36 15.948H659.84C660.549 15.948 661.137 15.6587 661.604 15.08C662.089 14.5013 662.332 13.7173 662.332 12.728C662.332 12.224 662.257 11.776 662.108 11.384C661.958 10.9733 661.762 10.628 661.52 10.348C661.277 10.068 660.988 9.86267 660.652 9.732C660.334 9.58267 660.008 9.508 659.672 9.508H655.36V15.948ZM677.313 14.576C676.174 14.5947 675.157 14.8187 674.261 15.248C673.365 15.6587 672.721 16.284 672.329 17.124V26H668.577V11.328H672.021V14.464C672.282 13.96 672.59 13.512 672.945 13.12C673.3 12.7093 673.682 12.3547 674.093 12.056C674.504 11.7573 674.914 11.5333 675.325 11.384C675.754 11.216 676.165 11.132 676.557 11.132C676.762 11.132 676.912 11.132 677.005 11.132C677.117 11.132 677.22 11.1413 677.313 11.16V14.576ZM685.443 26.28C684.248 26.28 683.175 26.0747 682.223 25.664C681.271 25.2533 680.459 24.7027 679.787 24.012C679.134 23.3027 678.63 22.4907 678.275 21.576C677.92 20.6613 677.743 19.7 677.743 18.692C677.743 17.6653 677.92 16.6947 678.275 15.78C678.63 14.8653 679.134 14.0627 679.787 13.372C680.459 12.6627 681.271 12.1027 682.223 11.692C683.175 11.2813 684.248 11.076 685.443 11.076C686.638 11.076 687.702 11.2813 688.635 11.692C689.587 12.1027 690.39 12.6627 691.043 13.372C691.715 14.0627 692.228 14.8653 692.583 15.78C692.938 16.6947 693.115 17.6653 693.115 18.692C693.115 19.7 692.938 20.6613 692.583 21.576C692.228 22.4907 691.724 23.3027 691.071 24.012C690.418 24.7027 689.615 25.2533 688.663 25.664C687.711 26.0747 686.638 26.28 685.443 26.28ZM681.607 18.692C681.607 19.3453 681.7 19.9427 681.887 20.484C682.092 21.0067 682.363 21.464 682.699 21.856C683.054 22.248 683.464 22.556 683.931 22.78C684.398 22.9853 684.902 23.088 685.443 23.088C685.984 23.088 686.488 22.9853 686.955 22.78C687.422 22.556 687.823 22.248 688.159 21.856C688.514 21.464 688.784 20.9973 688.971 20.456C689.176 19.9147 689.279 19.3173 689.279 18.664C689.279 18.0293 689.176 17.4413 688.971 16.9C688.784 16.3587 688.514 15.892 688.159 15.5C687.823 15.108 687.422 14.8093 686.955 14.604C686.488 14.38 685.984 14.268 685.443 14.268C684.902 14.268 684.398 14.38 683.931 14.604C683.464 14.828 683.054 15.136 682.699 15.528C682.363 15.92 682.092 16.3867 681.887 16.928C681.7 17.4693 681.607 18.0573 681.607 18.692ZM704.248 25.244C703.744 25.468 703.128 25.692 702.4 25.916C701.672 26.14 700.907 26.252 700.104 26.252C699.581 26.252 699.087 26.1867 698.62 26.056C698.172 25.9253 697.771 25.72 697.416 25.44C697.08 25.1413 696.809 24.768 696.604 24.32C696.399 23.8533 696.296 23.2933 696.296 22.64V14.212H694.364V11.328H696.296V6.568H700.048V11.328H703.128V14.212H700.048V21.38C700.048 21.9027 700.179 22.276 700.44 22.5C700.72 22.7053 701.056 22.808 701.448 22.808C701.84 22.808 702.223 22.7427 702.596 22.612C702.969 22.4813 703.268 22.3693 703.492 22.276L704.248 25.244ZM712.623 26.28C711.428 26.28 710.355 26.0747 709.403 25.664C708.451 25.2533 707.639 24.7027 706.967 24.012C706.313 23.3027 705.809 22.4907 705.455 21.576C705.1 20.6613 704.923 19.7 704.923 18.692C704.923 17.6653 705.1 16.6947 705.455 15.78C705.809 14.8653 706.313 14.0627 706.967 13.372C707.639 12.6627 708.451 12.1027 709.403 11.692C710.355 11.2813 711.428 11.076 712.623 11.076C713.817 11.076 714.881 11.2813 715.815 11.692C716.767 12.1027 717.569 12.6627 718.223 13.372C718.895 14.0627 719.408 14.8653 719.763 15.78C720.117 16.6947 720.295 17.6653 720.295 18.692C720.295 19.7 720.117 20.6613 719.763 21.576C719.408 22.4907 718.904 23.3027 718.251 24.012C717.597 24.7027 716.795 25.2533 715.843 25.664C714.891 26.0747 713.817 26.28 712.623 26.28ZM708.787 18.692C708.787 19.3453 708.88 19.9427 709.067 20.484C709.272 21.0067 709.543 21.464 709.879 21.856C710.233 22.248 710.644 22.556 711.111 22.78C711.577 22.9853 712.081 23.088 712.623 23.088C713.164 23.088 713.668 22.9853 714.135 22.78C714.601 22.556 715.003 22.248 715.339 21.856C715.693 21.464 715.964 20.9973 716.151 20.456C716.356 19.9147 716.459 19.3173 716.459 18.664C716.459 18.0293 716.356 17.4413 716.151 16.9C715.964 16.3587 715.693 15.892 715.339 15.5C715.003 15.108 714.601 14.8093 714.135 14.604C713.668 14.38 713.164 14.268 712.623 14.268C712.081 14.268 711.577 14.38 711.111 14.604C710.644 14.828 710.233 15.136 709.879 15.528C709.543 15.92 709.272 16.3867 709.067 16.928C708.88 17.4693 708.787 18.0573 708.787 18.692ZM731.428 25.244C730.924 25.468 730.308 25.692 729.58 25.916C728.852 26.14 728.086 26.252 727.284 26.252C726.761 26.252 726.266 26.1867 725.8 26.056C725.352 25.9253 724.95 25.72 724.596 25.44C724.26 25.1413 723.989 24.768 723.784 24.32C723.578 23.8533 723.476 23.2933 723.476 22.64V14.212H721.544V11.328H723.476V6.568H727.228V11.328H730.308V14.212H727.228V21.38C727.228 21.9027 727.358 22.276 727.62 22.5C727.9 22.7053 728.236 22.808 728.628 22.808C729.02 22.808 729.402 22.7427 729.776 22.612C730.149 22.4813 730.448 22.3693 730.672 22.276L731.428 25.244ZM733.69 28.856C734.007 28.9493 734.315 29.0147 734.614 29.052C734.912 29.108 735.164 29.136 735.37 29.136C735.612 29.136 735.836 29.0893 736.042 28.996C736.247 28.9027 736.434 28.7347 736.602 28.492C736.77 28.268 736.938 27.9507 737.106 27.54C737.274 27.1293 737.451 26.616 737.638 26L731.842 11.328H735.706L739.682 22.752L743.21 11.328H746.738L740.578 28.912C740.223 29.9387 739.616 30.7787 738.758 31.432C737.899 32.0853 736.835 32.412 735.566 32.412C735.267 32.412 734.959 32.384 734.642 32.328C734.343 32.2907 734.026 32.216 733.69 32.104V28.856ZM757.568 26.28C756.411 26.28 755.403 26.028 754.544 25.524C753.686 25.0013 753.014 24.3013 752.528 23.424V31.964H748.776V11.328H752.052V13.848C752.594 12.9893 753.294 12.3173 754.152 11.832C755.011 11.328 756 11.076 757.12 11.076C758.11 11.076 759.024 11.2813 759.864 11.692C760.704 12.084 761.423 12.6253 762.02 13.316C762.636 13.988 763.112 14.7907 763.448 15.724C763.803 16.6387 763.98 17.6093 763.98 18.636C763.98 19.7 763.822 20.6987 763.504 21.632C763.187 22.5653 762.739 23.3773 762.16 24.068C761.6 24.7587 760.928 25.3 760.144 25.692C759.36 26.084 758.502 26.28 757.568 26.28ZM756.308 23.088C756.868 23.088 757.382 22.9667 757.848 22.724C758.334 22.4813 758.744 22.1547 759.08 21.744C759.416 21.3333 759.678 20.8573 759.864 20.316C760.051 19.7747 760.144 19.2147 760.144 18.636C760.144 18.02 760.042 17.4507 759.836 16.928C759.631 16.3867 759.342 15.92 758.968 15.528C758.614 15.136 758.184 14.828 757.68 14.604C757.195 14.38 756.663 14.268 756.084 14.268C755.73 14.268 755.366 14.3333 754.992 14.464C754.619 14.576 754.274 14.744 753.956 14.968C753.639 15.192 753.35 15.4533 753.088 15.752C752.846 16.0507 752.659 16.3773 752.528 16.732V20.176C752.864 21.016 753.378 21.716 754.068 22.276C754.759 22.8173 755.506 23.088 756.308 23.088ZM773.326 26.28C772.15 26.28 771.086 26.084 770.134 25.692C769.182 25.2813 768.37 24.7307 767.698 24.04C767.026 23.3493 766.504 22.5467 766.13 21.632C765.776 20.7173 765.598 19.756 765.598 18.748C765.598 17.7027 765.776 16.7227 766.13 15.808C766.485 14.8747 766.998 14.0627 767.67 13.372C768.342 12.6627 769.154 12.1027 770.106 11.692C771.077 11.2813 772.16 11.076 773.354 11.076C774.549 11.076 775.613 11.2813 776.546 11.692C777.498 12.1027 778.301 12.6533 778.954 13.344C779.626 14.0347 780.13 14.8373 780.466 15.752C780.821 16.6667 780.998 17.6187 780.998 18.608C780.998 18.8507 780.989 19.084 780.97 19.308C780.97 19.532 780.952 19.7187 780.914 19.868H769.574C769.63 20.4467 769.77 20.96 769.994 21.408C770.218 21.856 770.508 22.2387 770.862 22.556C771.217 22.8733 771.618 23.116 772.066 23.284C772.514 23.452 772.981 23.536 773.466 23.536C774.213 23.536 774.913 23.3587 775.566 23.004C776.238 22.6307 776.696 22.1453 776.938 21.548L780.158 22.444C779.617 23.564 778.749 24.488 777.554 25.216C776.378 25.9253 774.969 26.28 773.326 26.28ZM777.134 17.432C777.041 16.3307 776.63 15.4533 775.902 14.8C775.193 14.128 774.325 13.792 773.298 13.792C772.794 13.792 772.318 13.8853 771.87 14.072C771.441 14.24 771.058 14.4827 770.722 14.8C770.386 15.1173 770.106 15.5 769.882 15.948C769.677 16.396 769.556 16.8907 769.518 17.432H777.134ZM684.93 47.18C684.486 47.18 684.072 47.108 683.688 46.964C683.304 46.808 682.968 46.598 682.68 46.334C682.404 46.07 682.182 45.764 682.014 45.416C681.858 45.056 681.78 44.666 681.78 44.246C681.78 43.814 681.876 43.424 682.068 43.076C682.26 42.716 682.53 42.41 682.878 42.158C683.238 41.906 683.658 41.708 684.138 41.564C684.63 41.42 685.164 41.348 685.74 41.348C686.196 41.348 686.658 41.39 687.126 41.474C687.594 41.558 688.008 41.672 688.368 41.816V41.06C688.368 40.292 688.152 39.692 687.72 39.26C687.288 38.816 686.676 38.594 685.884 38.594C684.936 38.594 683.94 38.96 682.896 39.692L682.374 38.666C683.586 37.85 684.804 37.442 686.028 37.442C687.264 37.442 688.224 37.772 688.908 38.432C689.604 39.092 689.952 40.022 689.952 41.222V45.056C689.952 45.428 690.12 45.62 690.456 45.632V47C690.288 47.024 690.15 47.042 690.042 47.054C689.934 47.066 689.82 47.072 689.7 47.072C689.388 47.072 689.136 46.982 688.944 46.802C688.764 46.61 688.656 46.382 688.62 46.118L688.584 45.452C688.164 46.016 687.63 46.448 686.982 46.748C686.346 47.036 685.662 47.18 684.93 47.18ZM685.344 45.992C685.908 45.992 686.43 45.89 686.91 45.686C687.402 45.47 687.774 45.188 688.026 44.84C688.254 44.612 688.368 44.378 688.368 44.138V42.752C687.6 42.452 686.802 42.302 685.974 42.302C685.182 42.302 684.534 42.47 684.03 42.806C683.538 43.142 683.292 43.58 683.292 44.12C683.292 44.384 683.34 44.63 683.436 44.858C683.544 45.086 683.688 45.284 683.868 45.452C684.06 45.62 684.282 45.752 684.534 45.848C684.786 45.944 685.056 45.992 685.344 45.992ZM700.639 47H699.055V41.744C699.055 40.736 698.899 40.004 698.587 39.548C698.287 39.092 697.825 38.864 697.201 38.864C696.877 38.864 696.553 38.93 696.229 39.062C695.905 39.182 695.599 39.35 695.311 39.566C695.023 39.782 694.771 40.04 694.555 40.34C694.339 40.64 694.177 40.97 694.069 41.33V47H692.485V37.604H693.925V39.62C694.297 38.96 694.831 38.432 695.527 38.036C696.235 37.64 697.003 37.442 697.831 37.442C698.371 37.442 698.821 37.544 699.181 37.748C699.541 37.94 699.829 38.216 700.045 38.576C700.261 38.924 700.411 39.338 700.495 39.818C700.591 40.298 700.639 40.82 700.639 41.384V47ZM706.972 47.18C706.324 47.18 705.724 47.048 705.172 46.784C704.62 46.52 704.146 46.166 703.75 45.722C703.354 45.278 703.042 44.762 702.814 44.174C702.598 43.586 702.49 42.968 702.49 42.32C702.49 41.66 702.592 41.036 702.796 40.448C703.012 39.848 703.306 39.326 703.678 38.882C704.062 38.438 704.512 38.09 705.028 37.838C705.556 37.574 706.132 37.442 706.756 37.442C707.512 37.442 708.184 37.64 708.772 38.036C709.372 38.432 709.846 38.912 710.194 39.476V33.86H711.778V45.056C711.778 45.428 711.946 45.62 712.282 45.632V47C712.114 47.024 711.976 47.042 711.868 47.054C711.772 47.066 711.676 47.072 711.58 47.072C711.268 47.072 710.992 46.97 710.752 46.766C710.524 46.55 710.41 46.304 710.41 46.028V45.236C710.038 45.848 709.54 46.328 708.916 46.676C708.304 47.012 707.656 47.18 706.972 47.18ZM707.35 45.812C707.638 45.812 707.932 45.758 708.232 45.65C708.544 45.542 708.832 45.392 709.096 45.2C709.372 45.008 709.606 44.786 709.798 44.534C710.002 44.27 710.134 43.994 710.194 43.706V41.006C710.086 40.706 709.924 40.424 709.708 40.16C709.492 39.884 709.246 39.65 708.97 39.458C708.706 39.254 708.418 39.098 708.106 38.99C707.806 38.87 707.506 38.81 707.206 38.81C706.738 38.81 706.312 38.912 705.928 39.116C705.556 39.308 705.232 39.572 704.956 39.908C704.692 40.232 704.488 40.61 704.344 41.042C704.2 41.462 704.128 41.894 704.128 42.338C704.128 42.806 704.212 43.256 704.38 43.688C704.548 44.108 704.776 44.474 705.064 44.786C705.352 45.098 705.688 45.35 706.072 45.542C706.468 45.722 706.894 45.812 707.35 45.812ZM723.835 46.532C723.739 46.58 723.613 46.64 723.457 46.712C723.301 46.772 723.121 46.838 722.917 46.91C722.725 46.97 722.509 47.018 722.269 47.054C722.041 47.102 721.801 47.126 721.549 47.126C720.973 47.126 720.475 46.97 720.055 46.658C719.635 46.334 719.425 45.836 719.425 45.164V38.846H718.147V37.604H719.425V34.472H721.009V37.604H723.115V38.846H721.009V44.678C721.033 45.026 721.147 45.278 721.351 45.434C721.555 45.59 721.795 45.668 722.071 45.668C722.383 45.668 722.665 45.62 722.917 45.524C723.181 45.416 723.361 45.332 723.457 45.272L723.835 46.532ZM729.338 47.18C728.63 47.18 727.982 47.054 727.394 46.802C726.806 46.538 726.302 46.184 725.882 45.74C725.462 45.296 725.132 44.78 724.892 44.192C724.664 43.592 724.55 42.962 724.55 42.302C724.55 41.642 724.664 41.018 724.892 40.43C725.132 39.842 725.462 39.326 725.882 38.882C726.314 38.438 726.824 38.09 727.412 37.838C728 37.574 728.648 37.442 729.356 37.442C730.064 37.442 730.706 37.574 731.282 37.838C731.87 38.102 732.368 38.456 732.776 38.9C733.184 39.332 733.496 39.842 733.712 40.43C733.94 41.006 734.054 41.606 734.054 42.23C734.054 42.362 734.048 42.482 734.036 42.59C734.036 42.698 734.03 42.782 734.018 42.842H726.224C726.26 43.31 726.368 43.736 726.548 44.12C726.728 44.504 726.962 44.834 727.25 45.11C727.538 45.386 727.862 45.602 728.222 45.758C728.594 45.914 728.984 45.992 729.392 45.992C729.68 45.992 729.962 45.956 730.238 45.884C730.514 45.8 730.772 45.692 731.012 45.56C731.252 45.428 731.462 45.266 731.642 45.074C731.834 44.882 731.978 44.666 732.074 44.426L733.442 44.804C733.286 45.152 733.07 45.47 732.794 45.758C732.53 46.046 732.218 46.298 731.858 46.514C731.51 46.718 731.12 46.88 730.688 47C730.256 47.12 729.806 47.18 729.338 47.18ZM732.56 41.672C732.524 41.228 732.41 40.82 732.218 40.448C732.038 40.064 731.804 39.74 731.516 39.476C731.24 39.212 730.916 39.008 730.544 38.864C730.172 38.708 729.776 38.63 729.356 38.63C728.936 38.63 728.54 38.708 728.168 38.864C727.796 39.008 727.466 39.218 727.178 39.494C726.902 39.758 726.674 40.076 726.494 40.448C726.326 40.82 726.224 41.228 726.188 41.672H732.56ZM739.109 47.18C738.353 47.18 737.609 47.066 736.877 46.838C736.145 46.598 735.515 46.256 734.987 45.812L735.671 44.75C736.223 45.17 736.775 45.488 737.327 45.704C737.879 45.908 738.461 46.01 739.073 46.01C739.757 46.01 740.297 45.878 740.693 45.614C741.101 45.338 741.305 44.954 741.305 44.462C741.305 44.234 741.251 44.042 741.143 43.886C741.035 43.718 740.873 43.574 740.657 43.454C740.441 43.334 740.165 43.226 739.829 43.13C739.493 43.034 739.103 42.932 738.659 42.824C738.095 42.68 737.609 42.542 737.201 42.41C736.793 42.278 736.457 42.122 736.193 41.942C735.929 41.762 735.737 41.546 735.617 41.294C735.497 41.042 735.437 40.73 735.437 40.358C735.437 39.89 735.527 39.476 735.707 39.116C735.899 38.744 736.157 38.438 736.481 38.198C736.805 37.946 737.183 37.76 737.615 37.64C738.059 37.508 738.533 37.442 739.037 37.442C739.745 37.442 740.405 37.556 741.017 37.784C741.629 38.012 742.145 38.312 742.565 38.684L741.845 39.638C741.449 39.29 741.005 39.032 740.513 38.864C740.021 38.684 739.517 38.594 739.001 38.594C738.425 38.594 737.933 38.72 737.525 38.972C737.129 39.212 736.931 39.602 736.931 40.142C736.931 40.358 736.967 40.538 737.039 40.682C737.123 40.826 737.255 40.952 737.435 41.06C737.615 41.168 737.843 41.264 738.119 41.348C738.407 41.432 738.749 41.522 739.145 41.618C739.769 41.762 740.309 41.912 740.765 42.068C741.233 42.212 741.617 42.386 741.917 42.59C742.229 42.794 742.457 43.034 742.601 43.31C742.757 43.586 742.835 43.922 742.835 44.318C742.835 45.194 742.499 45.89 741.827 46.406C741.155 46.922 740.249 47.18 739.109 47.18ZM749.57 46.532C749.474 46.58 749.348 46.64 749.192 46.712C749.036 46.772 748.856 46.838 748.652 46.91C748.46 46.97 748.244 47.018 748.004 47.054C747.776 47.102 747.536 47.126 747.284 47.126C746.708 47.126 746.21 46.97 745.79 46.658C745.37 46.334 745.16 45.836 745.16 45.164V38.846H743.882V37.604H745.16V34.472H746.744V37.604H748.85V38.846H746.744V44.678C746.768 45.026 746.882 45.278 747.086 45.434C747.29 45.59 747.53 45.668 747.806 45.668C748.118 45.668 748.4 45.62 748.652 45.524C748.916 45.416 749.096 45.332 749.192 45.272L749.57 46.532Z" fill="white"/>
<path d="M880.218 6.12L885.594 21.156L890.914 6.12H894.974L887.218 26H883.97L876.158 6.12H880.218ZM899.341 26.28C898.632 26.28 897.969 26.168 897.353 25.944C896.737 25.7013 896.205 25.3747 895.757 24.964C895.309 24.5347 894.954 24.04 894.693 23.48C894.45 22.92 894.329 22.304 894.329 21.632C894.329 20.9413 894.478 20.3067 894.777 19.728C895.094 19.1307 895.524 18.6267 896.065 18.216C896.625 17.8053 897.288 17.488 898.053 17.264C898.818 17.0213 899.658 16.9 900.573 16.9C901.226 16.9 901.861 16.956 902.477 17.068C903.112 17.18 903.672 17.3387 904.157 17.544V16.704C904.157 15.7333 903.877 14.9867 903.317 14.464C902.776 13.9413 901.964 13.68 900.881 13.68C900.097 13.68 899.332 13.82 898.585 14.1C897.838 14.38 897.073 14.7907 896.289 15.332L895.141 12.952C897.026 11.7013 899.061 11.076 901.245 11.076C903.354 11.076 904.988 11.5987 906.145 12.644C907.321 13.6707 907.909 15.164 907.909 17.124V21.688C907.909 22.08 907.974 22.36 908.105 22.528C908.254 22.696 908.488 22.7893 908.805 22.808V26C908.17 26.1307 907.62 26.196 907.153 26.196C906.444 26.196 905.893 26.0373 905.501 25.72C905.128 25.4027 904.894 24.9827 904.801 24.46L904.717 23.648C904.064 24.5067 903.27 25.16 902.337 25.608C901.404 26.056 900.405 26.28 899.341 26.28ZM900.405 23.536C901.04 23.536 901.637 23.424 902.197 23.2C902.776 22.976 903.224 22.6773 903.541 22.304C903.952 21.9867 904.157 21.632 904.157 21.24V19.56C903.709 19.392 903.224 19.2613 902.701 19.168C902.178 19.056 901.674 19 901.189 19C900.218 19 899.425 19.224 898.809 19.672C898.193 20.1013 897.885 20.652 897.885 21.324C897.885 21.9587 898.128 22.4907 898.613 22.92C899.098 23.3307 899.696 23.536 900.405 23.536ZM911.387 5.56H915.139V21.296C915.139 21.8373 915.27 22.2573 915.531 22.556C915.792 22.8547 916.166 23.004 916.651 23.004C916.875 23.004 917.118 22.9667 917.379 22.892C917.659 22.8173 917.92 22.724 918.163 22.612L918.667 25.468C918.163 25.7107 917.575 25.8973 916.903 26.028C916.231 26.1587 915.624 26.224 915.083 26.224C913.907 26.224 912.992 25.916 912.339 25.3C911.704 24.6653 911.387 23.7693 911.387 22.612V5.56ZM920.302 26V11.328H924.054V26H920.302ZM920.302 9.284V5.56H924.054V9.284H920.302ZM933.514 26.28C932.506 26.28 931.573 26.084 930.714 25.692C929.856 25.3 929.118 24.7587 928.502 24.068C927.886 23.3773 927.401 22.5747 927.046 21.66C926.71 20.7267 926.542 19.728 926.542 18.664C926.542 17.6 926.701 16.6107 927.018 15.696C927.354 14.7813 927.812 13.9787 928.39 13.288C928.969 12.5973 929.66 12.056 930.462 11.664C931.265 11.272 932.142 11.076 933.094 11.076C934.177 11.076 935.148 11.3373 936.006 11.86C936.884 12.3827 937.565 13.064 938.05 13.904V5.56H941.802V21.688C941.802 22.08 941.868 22.36 941.998 22.528C942.129 22.696 942.353 22.7893 942.67 22.808V26C942.017 26.1307 941.485 26.196 941.074 26.196C940.402 26.196 939.852 26.028 939.422 25.692C938.993 25.356 938.75 24.9173 938.694 24.376L938.61 23.452C938.069 24.3853 937.332 25.0947 936.398 25.58C935.484 26.0467 934.522 26.28 933.514 26.28ZM934.494 23.088C934.849 23.088 935.213 23.032 935.586 22.92C935.96 22.7893 936.305 22.612 936.622 22.388C936.94 22.164 937.22 21.9027 937.462 21.604C937.724 21.3053 937.92 20.9787 938.05 20.624V17.124C937.901 16.7133 937.686 16.34 937.406 16.004C937.145 15.6493 936.837 15.3507 936.482 15.108C936.146 14.8467 935.782 14.6413 935.39 14.492C935.017 14.3427 934.644 14.268 934.27 14.268C933.71 14.268 933.188 14.3893 932.702 14.632C932.236 14.8747 931.834 15.2107 931.498 15.64C931.162 16.0507 930.901 16.5267 930.714 17.068C930.528 17.6093 930.434 18.1693 930.434 18.748C930.434 19.364 930.537 19.9333 930.742 20.456C930.948 20.9787 931.228 21.436 931.582 21.828C931.937 22.22 932.357 22.528 932.842 22.752C933.346 22.976 933.897 23.088 934.494 23.088ZM949.489 26.28C948.78 26.28 948.117 26.168 947.501 25.944C946.885 25.7013 946.353 25.3747 945.905 24.964C945.457 24.5347 945.103 24.04 944.841 23.48C944.599 22.92 944.477 22.304 944.477 21.632C944.477 20.9413 944.627 20.3067 944.925 19.728C945.243 19.1307 945.672 18.6267 946.213 18.216C946.773 17.8053 947.436 17.488 948.201 17.264C948.967 17.0213 949.807 16.9 950.721 16.9C951.375 16.9 952.009 16.956 952.625 17.068C953.26 17.18 953.82 17.3387 954.305 17.544V16.704C954.305 15.7333 954.025 14.9867 953.465 14.464C952.924 13.9413 952.112 13.68 951.029 13.68C950.245 13.68 949.48 13.82 948.733 14.1C947.987 14.38 947.221 14.7907 946.437 15.332L945.289 12.952C947.175 11.7013 949.209 11.076 951.393 11.076C953.503 11.076 955.136 11.5987 956.293 12.644C957.469 13.6707 958.057 15.164 958.057 17.124V21.688C958.057 22.08 958.123 22.36 958.253 22.528C958.403 22.696 958.636 22.7893 958.953 22.808V26C958.319 26.1307 957.768 26.196 957.301 26.196C956.592 26.196 956.041 26.0373 955.649 25.72C955.276 25.4027 955.043 24.9827 954.949 24.46L954.865 23.648C954.212 24.5067 953.419 25.16 952.485 25.608C951.552 26.056 950.553 26.28 949.489 26.28ZM950.553 23.536C951.188 23.536 951.785 23.424 952.345 23.2C952.924 22.976 953.372 22.6773 953.689 22.304C954.1 21.9867 954.305 21.632 954.305 21.24V19.56C953.857 19.392 953.372 19.2613 952.849 19.168C952.327 19.056 951.823 19 951.337 19C950.367 19 949.573 19.224 948.957 19.672C948.341 20.1013 948.033 20.652 948.033 21.324C948.033 21.9587 948.276 22.4907 948.761 22.92C949.247 23.3307 949.844 23.536 950.553 23.536ZM970.246 25.244C969.742 25.468 969.126 25.692 968.398 25.916C967.67 26.14 966.905 26.252 966.102 26.252C965.579 26.252 965.085 26.1867 964.618 26.056C964.17 25.9253 963.769 25.72 963.414 25.44C963.078 25.1413 962.807 24.768 962.602 24.32C962.397 23.8533 962.294 23.2933 962.294 22.64V14.212H960.362V11.328H962.294V6.568H966.046V11.328H969.126V14.212H966.046V21.38C966.046 21.9027 966.177 22.276 966.438 22.5C966.718 22.7053 967.054 22.808 967.446 22.808C967.838 22.808 968.221 22.7427 968.594 22.612C968.967 22.4813 969.266 22.3693 969.49 22.276L970.246 25.244ZM978.649 26.28C977.473 26.28 976.409 26.084 975.457 25.692C974.505 25.2813 973.693 24.7307 973.021 24.04C972.349 23.3493 971.826 22.5467 971.453 21.632C971.098 20.7173 970.921 19.756 970.921 18.748C970.921 17.7027 971.098 16.7227 971.453 15.808C971.807 14.8747 972.321 14.0627 972.993 13.372C973.665 12.6627 974.477 12.1027 975.429 11.692C976.399 11.2813 977.482 11.076 978.677 11.076C979.871 11.076 980.935 11.2813 981.869 11.692C982.821 12.1027 983.623 12.6533 984.277 13.344C984.949 14.0347 985.453 14.8373 985.789 15.752C986.143 16.6667 986.321 17.6187 986.321 18.608C986.321 18.8507 986.311 19.084 986.293 19.308C986.293 19.532 986.274 19.7187 986.237 19.868H974.897C974.953 20.4467 975.093 20.96 975.317 21.408C975.541 21.856 975.83 22.2387 976.185 22.556C976.539 22.8733 976.941 23.116 977.389 23.284C977.837 23.452 978.303 23.536 978.789 23.536C979.535 23.536 980.235 23.3587 980.889 23.004C981.561 22.6307 982.018 22.1453 982.261 21.548L985.481 22.444C984.939 23.564 984.071 24.488 982.877 25.216C981.701 25.9253 980.291 26.28 978.649 26.28ZM982.457 17.432C982.363 16.3307 981.953 15.4533 981.225 14.8C980.515 14.128 979.647 13.792 978.621 13.792C978.117 13.792 977.641 13.8853 977.193 14.072C976.763 14.24 976.381 14.4827 976.045 14.8C975.709 15.1173 975.429 15.5 975.205 15.948C974.999 16.396 974.878 16.8907 974.841 17.432H982.457ZM895.507 47.18C895.063 47.18 894.649 47.108 894.265 46.964C893.881 46.808 893.545 46.598 893.257 46.334C892.981 46.07 892.759 45.764 892.591 45.416C892.435 45.056 892.357 44.666 892.357 44.246C892.357 43.814 892.453 43.424 892.645 43.076C892.837 42.716 893.107 42.41 893.455 42.158C893.815 41.906 894.235 41.708 894.715 41.564C895.207 41.42 895.741 41.348 896.317 41.348C896.773 41.348 897.235 41.39 897.703 41.474C898.171 41.558 898.585 41.672 898.945 41.816V41.06C898.945 40.292 898.729 39.692 898.297 39.26C897.865 38.816 897.253 38.594 896.461 38.594C895.513 38.594 894.517 38.96 893.473 39.692L892.951 38.666C894.163 37.85 895.381 37.442 896.605 37.442C897.841 37.442 898.801 37.772 899.485 38.432C900.181 39.092 900.529 40.022 900.529 41.222V45.056C900.529 45.428 900.697 45.62 901.033 45.632V47C900.865 47.024 900.727 47.042 900.619 47.054C900.511 47.066 900.397 47.072 900.277 47.072C899.965 47.072 899.713 46.982 899.521 46.802C899.341 46.61 899.233 46.382 899.197 46.118L899.161 45.452C898.741 46.016 898.207 46.448 897.559 46.748C896.923 47.036 896.239 47.18 895.507 47.18ZM895.921 45.992C896.485 45.992 897.007 45.89 897.487 45.686C897.979 45.47 898.351 45.188 898.603 44.84C898.831 44.612 898.945 44.378 898.945 44.138V42.752C898.177 42.452 897.379 42.302 896.551 42.302C895.759 42.302 895.111 42.47 894.607 42.806C894.115 43.142 893.869 43.58 893.869 44.12C893.869 44.384 893.917 44.63 894.013 44.858C894.121 45.086 894.265 45.284 894.445 45.452C894.637 45.62 894.859 45.752 895.111 45.848C895.363 45.944 895.633 45.992 895.921 45.992ZM911.216 47H909.632V41.744C909.632 40.736 909.476 40.004 909.164 39.548C908.864 39.092 908.402 38.864 907.778 38.864C907.454 38.864 907.13 38.93 906.806 39.062C906.482 39.182 906.176 39.35 905.888 39.566C905.6 39.782 905.348 40.04 905.132 40.34C904.916 40.64 904.754 40.97 904.646 41.33V47H903.062V37.604H904.502V39.62C904.874 38.96 905.408 38.432 906.104 38.036C906.812 37.64 907.58 37.442 908.408 37.442C908.948 37.442 909.398 37.544 909.758 37.748C910.118 37.94 910.406 38.216 910.622 38.576C910.838 38.924 910.988 39.338 911.072 39.818C911.168 40.298 911.216 40.82 911.216 41.384V47ZM917.549 47.18C916.901 47.18 916.301 47.048 915.749 46.784C915.197 46.52 914.723 46.166 914.327 45.722C913.931 45.278 913.619 44.762 913.391 44.174C913.175 43.586 913.067 42.968 913.067 42.32C913.067 41.66 913.169 41.036 913.373 40.448C913.589 39.848 913.883 39.326 914.255 38.882C914.639 38.438 915.089 38.09 915.605 37.838C916.133 37.574 916.709 37.442 917.333 37.442C918.089 37.442 918.761 37.64 919.349 38.036C919.949 38.432 920.423 38.912 920.771 39.476V33.86H922.355V45.056C922.355 45.428 922.523 45.62 922.859 45.632V47C922.691 47.024 922.553 47.042 922.445 47.054C922.349 47.066 922.253 47.072 922.157 47.072C921.845 47.072 921.569 46.97 921.329 46.766C921.101 46.55 920.987 46.304 920.987 46.028V45.236C920.615 45.848 920.117 46.328 919.493 46.676C918.881 47.012 918.233 47.18 917.549 47.18ZM917.927 45.812C918.215 45.812 918.509 45.758 918.809 45.65C919.121 45.542 919.409 45.392 919.673 45.2C919.949 45.008 920.183 44.786 920.375 44.534C920.579 44.27 920.711 43.994 920.771 43.706V41.006C920.663 40.706 920.501 40.424 920.285 40.16C920.069 39.884 919.823 39.65 919.547 39.458C919.283 39.254 918.995 39.098 918.683 38.99C918.383 38.87 918.083 38.81 917.783 38.81C917.315 38.81 916.889 38.912 916.505 39.116C916.133 39.308 915.809 39.572 915.533 39.908C915.269 40.232 915.065 40.61 914.921 41.042C914.777 41.462 914.705 41.894 914.705 42.338C914.705 42.806 914.789 43.256 914.957 43.688C915.125 44.108 915.353 44.474 915.641 44.786C915.929 45.098 916.265 45.35 916.649 45.542C917.045 45.722 917.471 45.812 917.927 45.812ZM929.588 33.86H931.172V44.57C931.172 44.918 931.262 45.194 931.442 45.398C931.634 45.59 931.898 45.686 932.234 45.686C932.366 45.686 932.522 45.668 932.702 45.632C932.882 45.584 933.05 45.53 933.206 45.47L933.458 46.748C933.194 46.856 932.882 46.946 932.522 47.018C932.162 47.09 931.844 47.126 931.568 47.126C930.956 47.126 930.47 46.952 930.11 46.604C929.762 46.256 929.588 45.77 929.588 45.146V33.86ZM938.861 47.18C938.153 47.18 937.505 47.054 936.917 46.802C936.329 46.538 935.825 46.184 935.405 45.74C934.985 45.296 934.655 44.78 934.415 44.192C934.187 43.592 934.073 42.962 934.073 42.302C934.073 41.642 934.187 41.018 934.415 40.43C934.655 39.842 934.985 39.326 935.405 38.882C935.837 38.438 936.347 38.09 936.935 37.838C937.523 37.574 938.171 37.442 938.879 37.442C939.587 37.442 940.229 37.574 940.805 37.838C941.393 38.102 941.891 38.456 942.299 38.9C942.707 39.332 943.019 39.842 943.235 40.43C943.463 41.006 943.577 41.606 943.577 42.23C943.577 42.362 943.571 42.482 943.559 42.59C943.559 42.698 943.553 42.782 943.541 42.842H935.747C935.783 43.31 935.891 43.736 936.071 44.12C936.251 44.504 936.485 44.834 936.773 45.11C937.061 45.386 937.385 45.602 937.745 45.758C938.117 45.914 938.507 45.992 938.915 45.992C939.203 45.992 939.485 45.956 939.761 45.884C940.037 45.8 940.295 45.692 940.535 45.56C940.775 45.428 940.985 45.266 941.165 45.074C941.357 44.882 941.501 44.666 941.597 44.426L942.965 44.804C942.809 45.152 942.593 45.47 942.317 45.758C942.053 46.046 941.741 46.298 941.381 46.514C941.033 46.718 940.643 46.88 940.211 47C939.779 47.12 939.329 47.18 938.861 47.18ZM942.083 41.672C942.047 41.228 941.933 40.82 941.741 40.448C941.561 40.064 941.327 39.74 941.039 39.476C940.763 39.212 940.439 39.008 940.067 38.864C939.695 38.708 939.299 38.63 938.879 38.63C938.459 38.63 938.063 38.708 937.691 38.864C937.319 39.008 936.989 39.218 936.701 39.494C936.425 39.758 936.197 40.076 936.017 40.448C935.849 40.82 935.747 41.228 935.711 41.672H942.083ZM947.75 47.18C947.306 47.18 946.892 47.108 946.508 46.964C946.124 46.808 945.788 46.598 945.5 46.334C945.224 46.07 945.002 45.764 944.834 45.416C944.678 45.056 944.6 44.666 944.6 44.246C944.6 43.814 944.696 43.424 944.888 43.076C945.08 42.716 945.35 42.41 945.698 42.158C946.058 41.906 946.478 41.708 946.958 41.564C947.45 41.42 947.984 41.348 948.56 41.348C949.016 41.348 949.478 41.39 949.946 41.474C950.414 41.558 950.828 41.672 951.188 41.816V41.06C951.188 40.292 950.972 39.692 950.54 39.26C950.108 38.816 949.496 38.594 948.704 38.594C947.756 38.594 946.76 38.96 945.716 39.692L945.194 38.666C946.406 37.85 947.624 37.442 948.848 37.442C950.084 37.442 951.044 37.772 951.728 38.432C952.424 39.092 952.772 40.022 952.772 41.222V45.056C952.772 45.428 952.94 45.62 953.276 45.632V47C953.108 47.024 952.97 47.042 952.862 47.054C952.754 47.066 952.64 47.072 952.52 47.072C952.208 47.072 951.956 46.982 951.764 46.802C951.584 46.61 951.476 46.382 951.44 46.118L951.404 45.452C950.984 46.016 950.45 46.448 949.802 46.748C949.166 47.036 948.482 47.18 947.75 47.18ZM948.164 45.992C948.728 45.992 949.25 45.89 949.73 45.686C950.222 45.47 950.594 45.188 950.846 44.84C951.074 44.612 951.188 44.378 951.188 44.138V42.752C950.42 42.452 949.622 42.302 948.794 42.302C948.002 42.302 947.354 42.47 946.85 42.806C946.358 43.142 946.112 43.58 946.112 44.12C946.112 44.384 946.16 44.63 946.256 44.858C946.364 45.086 946.508 45.284 946.688 45.452C946.88 45.62 947.102 45.752 947.354 45.848C947.606 45.944 947.876 45.992 948.164 45.992ZM960.272 38.99C959.48 39.014 958.778 39.218 958.166 39.602C957.566 39.986 957.14 40.52 956.888 41.204V47H955.304V37.604H956.78V39.782C957.104 39.134 957.53 38.612 958.058 38.216C958.586 37.808 959.15 37.58 959.75 37.532C959.87 37.532 959.972 37.532 960.056 37.532C960.14 37.532 960.212 37.538 960.272 37.55V38.99ZM969.997 47H968.413V41.744C968.413 40.736 968.257 40.004 967.945 39.548C967.645 39.092 967.183 38.864 966.559 38.864C966.235 38.864 965.911 38.93 965.587 39.062C965.263 39.182 964.957 39.35 964.669 39.566C964.381 39.782 964.129 40.04 963.913 40.34C963.697 40.64 963.535 40.97 963.427 41.33V47H961.843V37.604H963.283V39.62C963.655 38.96 964.189 38.432 964.885 38.036C965.593 37.64 966.361 37.442 967.189 37.442C967.729 37.442 968.179 37.544 968.539 37.748C968.899 37.94 969.187 38.216 969.403 38.576C969.619 38.924 969.769 39.338 969.853 39.818C969.949 40.298 969.997 40.82 969.997 41.384V47Z" fill="white"/>
</g>
<defs>
<clipPath id="clip0">
<rect width="1001" height="260" fill="white"/>
</clipPath>
<clipPath id="clip1">
<rect width="75" height="75" fill="white" transform="translate(463 111)"/>
</clipPath>
<clipPath id="clip2">
<rect width="75" height="80" fill="white" transform="translate(677 108)"/>
</clipPath>
<clipPath id="clip3">
<rect width="51.5625" height="75" fill="white" transform="translate(904 111)"/>
</clipPath>
<clipPath id="clip4">
<rect width="75" height="67.7711" fill="white" transform="translate(248 114)"/>
</clipPath>
</defs>
</svg>
