<svg width="295" height="432" viewBox="0 0 295 432" fill="none" xmlns="http://www.w3.org/2000/svg">
<g clip-path="url(#clip0)">
<path d="M43.9989 7.631H39.2319V20H36.3549V7.631H31.5879V5.09H43.9989V7.631ZM55.8039 20H52.9899V13.826C52.9899 12.958 52.8289 12.321 52.5069 11.915C52.1849 11.495 51.7299 11.285 51.1419 11.285C50.8899 11.285 50.6239 11.341 50.3439 11.453C50.0639 11.565 49.7979 11.726 49.5459 11.936C49.2939 12.132 49.0629 12.37 48.8529 12.65C48.6429 12.93 48.4889 13.238 48.3909 13.574V20H45.5769V4.67H48.3909V11.033C48.7969 10.319 49.3429 9.773 50.0289 9.395C50.7289 9.003 51.4989 8.807 52.3389 8.807C53.0529 8.807 53.6339 8.933 54.0819 9.185C54.5299 9.423 54.8799 9.745 55.1319 10.151C55.3839 10.557 55.5589 11.019 55.6569 11.537C55.7549 12.055 55.8039 12.587 55.8039 13.133V20ZM58.2507 20V8.996H61.0647V20H58.2507ZM58.2507 7.463V4.67H61.0647V7.463H58.2507ZM73.8303 20H71.0163V13.826C71.0163 12.944 70.8623 12.3 70.5543 11.894C70.2463 11.488 69.8193 11.285 69.2733 11.285C68.9933 11.285 68.7063 11.341 68.4123 11.453C68.1183 11.565 67.8383 11.726 67.5723 11.936C67.3203 12.132 67.0893 12.37 66.8793 12.65C66.6693 12.93 66.5153 13.238 66.4173 13.574V20H63.6033V8.996H66.1443V11.033C66.5503 10.333 67.1383 9.787 67.9083 9.395C68.6783 9.003 69.5463 8.807 70.5123 8.807C71.1983 8.807 71.7583 8.933 72.1923 9.185C72.6263 9.437 72.9623 9.766 73.2003 10.172C73.4383 10.578 73.5993 11.04 73.6833 11.558C73.7813 12.076 73.8303 12.601 73.8303 13.133V20ZM83.7951 20L80.6031 15.233L79.0911 16.724V20H76.2771V4.67H79.0911V13.973L83.5011 9.017H86.5041L82.4091 13.679L86.7981 20H83.7951ZM26.3113 39.16C25.9166 39.16 25.5486 39.096 25.2073 38.968C24.8659 38.8293 24.5673 38.6427 24.3113 38.408C24.0659 38.1733 23.8686 37.9013 23.7193 37.592C23.5806 37.272 23.5113 36.9253 23.5113 36.552C23.5113 36.168 23.5966 35.8213 23.7673 35.512C23.9379 35.192 24.1779 34.92 24.4873 34.696C24.8073 34.472 25.1806 34.296 25.6073 34.168C26.0446 34.04 26.5193 33.976 27.0312 33.976C27.4366 33.976 27.8473 34.0133 28.2633 34.088C28.6793 34.1627 29.0473 34.264 29.3673 34.392V33.72C29.3673 33.0373 29.1753 32.504 28.7913 32.12C28.4073 31.7253 27.8633 31.528 27.1593 31.528C26.3166 31.528 25.4313 31.8533 24.5033 32.504L24.0393 31.592C25.1166 30.8667 26.1993 30.504 27.2873 30.504C28.3859 30.504 29.2393 30.7973 29.8473 31.384C30.4659 31.9707 30.7753 32.7973 30.7753 33.864V37.272C30.7753 37.6027 30.9246 37.7733 31.2233 37.784V39C31.0739 39.0213 30.9513 39.0373 30.8553 39.048C30.7593 39.0587 30.6579 39.064 30.5513 39.064C30.2739 39.064 30.0499 38.984 29.8793 38.824C29.7193 38.6533 29.6233 38.4507 29.5913 38.216L29.5593 37.624C29.1859 38.1253 28.7113 38.5093 28.1353 38.776C27.5699 39.032 26.9619 39.16 26.3113 39.16ZM26.6793 38.104C27.1806 38.104 27.6446 38.0133 28.0713 37.832C28.5086 37.64 28.8393 37.3893 29.0633 37.08C29.2659 36.8773 29.3673 36.6693 29.3673 36.456V35.224C28.6846 34.9573 27.9753 34.824 27.2393 34.824C26.5353 34.824 25.9593 34.9733 25.5113 35.272C25.0739 35.5707 24.8553 35.96 24.8553 36.44C24.8553 36.6747 24.8979 36.8933 24.9833 37.096C25.0793 37.2987 25.2073 37.4747 25.3673 37.624C25.5379 37.7733 25.7353 37.8907 25.9593 37.976C26.1833 38.0613 26.4233 38.104 26.6793 38.104ZM40.2746 39H38.8666V34.328C38.8666 33.432 38.728 32.7813 38.4506 32.376C38.184 31.9707 37.7733 31.768 37.2186 31.768C36.9306 31.768 36.6426 31.8267 36.3546 31.944C36.0666 32.0507 35.7946 32.2 35.5386 32.392C35.2826 32.584 35.0586 32.8133 34.8666 33.08C34.6746 33.3467 34.5306 33.64 34.4346 33.96V39H33.0266V30.648H34.3066V32.44C34.6373 31.8533 35.112 31.384 35.7306 31.032C36.36 30.68 37.0426 30.504 37.7786 30.504C38.2586 30.504 38.6586 30.5947 38.9786 30.776C39.2986 30.9467 39.5546 31.192 39.7466 31.512C39.9386 31.8213 40.072 32.1893 40.1466 32.616C40.232 33.0427 40.2746 33.5067 40.2746 34.008V39ZM45.9041 39.16C45.3281 39.16 44.7948 39.0427 44.3041 38.808C43.8135 38.5733 43.3921 38.2587 43.0401 37.864C42.6881 37.4693 42.4108 37.0107 42.2081 36.488C42.0161 35.9653 41.9201 35.416 41.9201 34.84C41.9201 34.2533 42.0108 33.6987 42.1921 33.176C42.3841 32.6427 42.6455 32.1787 42.9761 31.784C43.3175 31.3893 43.7175 31.08 44.1761 30.856C44.6455 30.6213 45.1575 30.504 45.7121 30.504C46.3841 30.504 46.9815 30.68 47.5041 31.032C48.0375 31.384 48.4588 31.8107 48.7681 32.312V27.32H50.1761V37.272C50.1761 37.6027 50.3255 37.7733 50.6241 37.784V39C50.4748 39.0213 50.3521 39.0373 50.2561 39.048C50.1708 39.0587 50.0855 39.064 50.0001 39.064C49.7228 39.064 49.4775 38.9733 49.2641 38.792C49.0615 38.6 48.9601 38.3813 48.9601 38.136V37.432C48.6295 37.976 48.1868 38.4027 47.6321 38.712C47.0881 39.0107 46.5121 39.16 45.9041 39.16ZM46.2401 37.944C46.4961 37.944 46.7575 37.896 47.0241 37.8C47.3015 37.704 47.5575 37.5707 47.7921 37.4C48.0375 37.2293 48.2455 37.032 48.4161 36.808C48.5975 36.5733 48.7148 36.328 48.7681 36.072V33.672C48.6721 33.4053 48.5281 33.1547 48.3361 32.92C48.1441 32.6747 47.9255 32.4667 47.6801 32.296C47.4455 32.1147 47.1895 31.976 46.9121 31.88C46.6455 31.7733 46.3788 31.72 46.1121 31.72C45.6961 31.72 45.3175 31.8107 44.9761 31.992C44.6455 32.1627 44.3575 32.3973 44.1121 32.696C43.8775 32.984 43.6961 33.32 43.5681 33.704C43.4401 34.0773 43.3761 34.4613 43.3761 34.856C43.3761 35.272 43.4508 35.672 43.6001 36.056C43.7495 36.4293 43.9521 36.7547 44.2081 37.032C44.4641 37.3093 44.7628 37.5333 45.1041 37.704C45.4561 37.864 45.8348 37.944 46.2401 37.944ZM59.5015 39.16C58.8295 39.16 58.1682 39.0587 57.5175 38.856C56.8668 38.6427 56.3068 38.3387 55.8375 37.944L56.4455 37C56.9362 37.3733 57.4268 37.656 57.9175 37.848C58.4082 38.0293 58.9255 38.12 59.4695 38.12C60.0775 38.12 60.5575 38.0027 60.9095 37.768C61.2722 37.5227 61.4535 37.1813 61.4535 36.744C61.4535 36.5413 61.4055 36.3707 61.3095 36.232C61.2135 36.0827 61.0695 35.9547 60.8775 35.848C60.6855 35.7413 60.4402 35.6453 60.1415 35.56C59.8428 35.4747 59.4962 35.384 59.1015 35.288C58.6002 35.16 58.1682 35.0373 57.8055 34.92C57.4428 34.8027 57.1442 34.664 56.9095 34.504C56.6748 34.344 56.5042 34.152 56.3975 33.928C56.2908 33.704 56.2375 33.4267 56.2375 33.096C56.2375 32.68 56.3175 32.312 56.4775 31.992C56.6482 31.6613 56.8775 31.3893 57.1655 31.176C57.4535 30.952 57.7895 30.7867 58.1735 30.68C58.5682 30.5627 58.9895 30.504 59.4375 30.504C60.0668 30.504 60.6535 30.6053 61.1975 30.808C61.7415 31.0107 62.2002 31.2773 62.5735 31.608L61.9335 32.456C61.5815 32.1467 61.1868 31.9173 60.7495 31.768C60.3122 31.608 59.8642 31.528 59.4055 31.528C58.8935 31.528 58.4562 31.64 58.0935 31.864C57.7415 32.0773 57.5655 32.424 57.5655 32.904C57.5655 33.096 57.5975 33.256 57.6615 33.384C57.7362 33.512 57.8535 33.624 58.0135 33.72C58.1735 33.816 58.3762 33.9013 58.6215 33.976C58.8775 34.0507 59.1815 34.1307 59.5335 34.216C60.0882 34.344 60.5682 34.4773 60.9735 34.616C61.3895 34.744 61.7308 34.8987 61.9975 35.08C62.2748 35.2613 62.4775 35.4747 62.6055 35.72C62.7442 35.9653 62.8135 36.264 62.8135 36.616C62.8135 37.3947 62.5148 38.0133 61.9175 38.472C61.3202 38.9307 60.5148 39.16 59.5015 39.16ZM68.1278 39.16C67.4984 39.16 66.9224 39.0427 66.3998 38.808C65.8878 38.5733 65.4451 38.2587 65.0718 37.864C64.7091 37.4693 64.4264 37.0107 64.2238 36.488C64.0211 35.9653 63.9198 35.416 63.9198 34.84C63.9198 34.2533 64.0211 33.6987 64.2238 33.176C64.4371 32.6533 64.7251 32.1947 65.0878 31.8C65.4611 31.4053 65.9038 31.0907 66.4158 30.856C66.9384 30.6213 67.5091 30.504 68.1278 30.504C68.7464 30.504 69.3171 30.6213 69.8398 30.856C70.3624 31.0907 70.8051 31.4053 71.1678 31.8C71.5411 32.1947 71.8291 32.6533 72.0318 33.176C72.2451 33.6987 72.3518 34.2533 72.3518 34.84C72.3518 35.416 72.2504 35.9653 72.0478 36.488C71.8451 37.0107 71.5571 37.4693 71.1838 37.864C70.8104 38.2587 70.3624 38.5733 69.8398 38.808C69.3278 39.0427 68.7571 39.16 68.1278 39.16ZM65.3598 34.856C65.3598 35.2933 65.4291 35.6987 65.5678 36.072C65.7171 36.4453 65.9144 36.7707 66.1598 37.048C66.4158 37.3253 66.7091 37.544 67.0398 37.704C67.3811 37.864 67.7438 37.944 68.1278 37.944C68.5118 37.944 68.8691 37.864 69.1998 37.704C69.5411 37.544 69.8398 37.3253 70.0958 37.048C70.3518 36.76 70.5491 36.4293 70.6878 36.056C70.8371 35.672 70.9118 35.2613 70.9118 34.824C70.9118 34.3973 70.8371 33.9973 70.6878 33.624C70.5491 33.24 70.3518 32.9093 70.0958 32.632C69.8398 32.344 69.5411 32.12 69.1998 31.96C68.8691 31.8 68.5118 31.72 68.1278 31.72C67.7438 31.72 67.3811 31.8053 67.0398 31.976C66.7091 32.136 66.4158 32.36 66.1598 32.648C65.9144 32.9253 65.7171 33.256 65.5678 33.64C65.4291 34.0133 65.3598 34.4187 65.3598 34.856ZM74.0899 27.32H75.4979V36.84C75.4979 37.1493 75.5779 37.3947 75.7379 37.576C75.9085 37.7467 76.1432 37.832 76.4419 37.832C76.5592 37.832 76.6979 37.816 76.8579 37.784C77.0179 37.7413 77.1672 37.6933 77.3059 37.64L77.5299 38.776C77.2952 38.872 77.0179 38.952 76.6979 39.016C76.3779 39.08 76.0952 39.112 75.8499 39.112C75.3059 39.112 74.8739 38.9573 74.5539 38.648C74.2445 38.3387 74.0899 37.9067 74.0899 37.352V27.32ZM80.7395 39L77.4435 30.648H78.8995L81.5395 37.768L84.1955 30.648H85.5395L82.2435 39H80.7395ZM90.3476 39.16C89.7183 39.16 89.1423 39.048 88.6196 38.824C88.097 38.5893 87.649 38.2747 87.2756 37.88C86.9023 37.4853 86.609 37.0267 86.3956 36.504C86.193 35.9707 86.0916 35.4107 86.0916 34.824C86.0916 34.2373 86.193 33.6827 86.3956 33.16C86.609 32.6373 86.9023 32.1787 87.2756 31.784C87.6596 31.3893 88.113 31.08 88.6356 30.856C89.1583 30.6213 89.7343 30.504 90.3636 30.504C90.993 30.504 91.5636 30.6213 92.0756 30.856C92.5983 31.0907 93.041 31.4053 93.4036 31.8C93.7663 32.184 94.0436 32.6373 94.2356 33.16C94.4383 33.672 94.5396 34.2053 94.5396 34.76C94.5396 34.8773 94.5343 34.984 94.5236 35.08C94.5236 35.176 94.5183 35.2507 94.5076 35.304H87.5796C87.6116 35.72 87.7076 36.0987 87.8676 36.44C88.0276 36.7813 88.2356 37.0747 88.4916 37.32C88.7476 37.5653 89.0356 37.7573 89.3556 37.896C89.6863 38.0347 90.033 38.104 90.3956 38.104C90.6516 38.104 90.9023 38.072 91.1476 38.008C91.393 37.9333 91.6223 37.8373 91.8356 37.72C92.049 37.6027 92.2356 37.4587 92.3956 37.288C92.5663 37.1173 92.6943 36.9253 92.7796 36.712L93.9956 37.048C93.857 37.3573 93.665 37.64 93.4196 37.896C93.185 38.152 92.9076 38.376 92.5876 38.568C92.2783 38.7493 91.9316 38.8933 91.5476 39C91.1636 39.1067 90.7636 39.16 90.3476 39.16ZM93.2116 34.264C93.1796 33.8693 93.0783 33.5067 92.9076 33.176C92.7476 32.8347 92.5396 32.5467 92.2836 32.312C92.0383 32.0773 91.7503 31.896 91.4196 31.768C91.089 31.6293 90.737 31.56 90.3636 31.56C89.9903 31.56 89.6383 31.6293 89.3076 31.768C88.977 31.896 88.6836 32.0827 88.4276 32.328C88.1823 32.5627 87.9796 32.8453 87.8196 33.176C87.6703 33.5067 87.5796 33.8693 87.5476 34.264H93.2116Z" fill="white"/>
<path d="M166.707 113.707C167.098 113.317 167.098 112.683 166.707 112.293L160.343 105.929C159.953 105.538 159.319 105.538 158.929 105.929C158.538 106.319 158.538 106.953 158.929 107.343L164.586 113L158.929 118.657C158.538 119.047 158.538 119.681 158.929 120.071C159.319 120.462 159.953 120.462 160.343 120.071L166.707 113.707ZM99 114L166 114L166 112L99 112L99 114Z" fill="white"/>
<path d="M234.293 244.707C234.683 245.098 235.317 245.098 235.707 244.707L242.071 238.343C242.462 237.953 242.462 237.319 242.071 236.929C241.681 236.538 241.047 236.538 240.657 236.929L235 242.586L229.343 236.929C228.953 236.538 228.319 236.538 227.929 236.929C227.538 237.319 227.538 237.953 227.929 238.343L234.293 244.707ZM234 158L234 244L236 244L236 158L234 158Z" fill="white"/>
<path d="M132.293 372.293C131.902 372.683 131.902 373.317 132.293 373.707L138.657 380.071C139.047 380.462 139.681 380.462 140.071 380.071C140.462 379.681 140.462 379.047 140.071 378.657L134.414 373L140.071 367.343C140.462 366.953 140.462 366.319 140.071 365.929C139.681 365.538 139.047 365.538 138.657 365.929L132.293 372.293ZM194 372H133V374H194V372Z" fill="white"/>
<path d="M60.7071 193.293C60.3166 192.902 59.6834 192.902 59.2929 193.293L52.9289 199.657C52.5384 200.047 52.5384 200.681 52.9289 201.071C53.3195 201.462 53.9526 201.462 54.3431 201.071L60 195.414L65.6569 201.071C66.0474 201.462 66.6805 201.462 67.0711 201.071C67.4616 200.681 67.4616 200.047 67.0711 199.657L60.7071 193.293ZM61 244L61 194L59 194L59 244L61 244Z" fill="white"/>
<ellipse cx="59.4561" cy="115.031" rx="58.606" ry="59.0307" fill="#39435B"/>
<circle cx="59.0307" cy="115.031" r="58.0307" stroke="white" stroke-width="2"/>
<path d="M50.9601 87.418C47.7856 87.418 45.1526 89.6965 44.3987 92.7753C44.3138 92.7753 44.2501 92.753 44.1652 92.753C40.4174 92.753 37.3703 95.9429 37.3703 99.8664C37.3703 100.4 37.434 100.922 37.5508 101.422C34.4506 102.756 32.2741 105.935 32.2741 109.647C32.2741 111.048 32.6138 112.348 33.1553 113.526C30.6072 115.06 28.8766 117.906 28.8766 121.207C28.8766 124.908 31.0425 128.087 34.1215 129.42C34.0259 129.932 33.9728 130.454 33.9728 130.988C33.9728 135.411 37.3915 138.99 41.6171 138.99C42.0524 138.99 42.4771 138.935 42.8911 138.857C43.9104 142.025 46.7345 144.325 50.1107 144.325C54.3363 144.325 57.755 140.746 57.755 136.323V94.5314C57.755 90.6079 54.7079 87.418 50.9601 87.418ZM90.0308 121.207C90.0308 117.906 88.3002 115.06 85.7521 113.526C86.3042 112.348 86.6333 111.048 86.6333 109.647C86.6333 105.935 84.4568 102.756 81.3566 101.422C81.4628 100.922 81.5371 100.4 81.5371 99.8664C81.5371 95.9429 78.49 92.753 74.7422 92.753C74.6573 92.753 74.583 92.7753 74.5087 92.7753C73.7548 89.6965 71.1218 87.418 67.9473 87.418C64.1995 87.418 61.1524 90.5968 61.1524 94.5314V136.323C61.1524 140.746 64.5711 144.325 68.7967 144.325C72.1729 144.325 74.997 142.025 76.0163 138.857C76.4303 138.935 76.855 138.99 77.2903 138.99C81.5159 138.99 84.9346 135.411 84.9346 130.988C84.9346 130.454 84.8815 129.932 84.7859 129.42C87.8649 128.087 90.0308 124.908 90.0308 121.207Z" fill="#FFBA56"/>
<circle cx="236.031" cy="115.031" r="59.0307" fill="#39435B"/>
<circle cx="236.031" cy="115.031" r="58.0307" stroke="white" stroke-width="2"/>
<path d="M218.399 113.711L234.711 97.4014L229.363 92.0539L221.888 99.5298C221.798 99.6191 221.693 99.6899 221.576 99.7383C221.459 99.7866 221.334 99.8115 221.208 99.8115C221.082 99.8115 220.957 99.7866 220.841 99.7383C220.724 99.6899 220.618 99.6191 220.529 99.5298L219.17 98.1711C218.794 97.7953 218.794 97.1869 219.17 96.8124L226.646 89.3365L222.569 85.2581C221.067 83.7563 218.633 83.7563 217.132 85.2581L206.258 96.1312C204.758 97.6329 204.757 100.067 206.258 101.568L218.399 113.711V113.711ZM265.483 99.554C267.757 97.2802 267.756 93.5944 265.483 91.3206L259.999 85.8362C257.725 83.5624 254.038 83.5624 251.763 85.8362L246.185 91.4128L259.905 105.133L265.483 99.554V99.554ZM243.442 94.1568L207.445 130.149L205.171 143.171C204.865 144.928 206.394 146.457 208.152 146.148L221.175 143.865L257.163 107.876L243.442 94.1568ZM266.063 128.752L261.985 124.675L254.509 132.15C254.134 132.526 253.525 132.526 253.151 132.15L251.792 130.792C251.418 130.416 251.418 129.808 251.792 129.433L259.268 121.957L253.918 116.607L237.606 132.916L249.752 145.061C251.254 146.563 253.688 146.563 255.189 145.061L266.063 134.189C267.564 132.687 267.564 130.254 266.063 128.752Z" fill="#FFBA56"/>
<circle cx="236.031" cy="373.031" r="59.0307" fill="#39435B"/>
<circle cx="236.031" cy="373.031" r="58.0307" stroke="white" stroke-width="2"/>
<path d="M266.891 363.709L245.146 342.015C244.745 341.615 244.085 341.615 243.685 342.015L239.289 346.398C238.888 346.799 238.888 347.458 239.289 347.859L240.737 349.294L209.399 380.568C204.382 385.571 203.568 393.755 208.183 399.12C210.847 402.223 214.583 403.774 218.319 403.761C221.732 403.761 225.145 402.468 227.744 399.87L259.587 368.105L261.034 369.54C261.435 369.941 262.095 369.941 262.495 369.54L266.891 365.157C267.292 364.769 267.292 364.11 266.891 363.709V363.709ZM246.244 372.746H225.947L245.081 353.651L255.23 363.774L246.244 372.746Z" fill="#FFBA56"/>
<path d="M223.662 16.157C223.662 16.787 223.536 17.34 223.284 17.816C223.032 18.292 222.682 18.691 222.234 19.013C221.8 19.335 221.289 19.58 220.701 19.748C220.127 19.916 219.511 20 218.853 20H211.65V5.09H219.63C220.148 5.09 220.617 5.202 221.037 5.426C221.457 5.65 221.814 5.944 222.108 6.308C222.402 6.658 222.626 7.064 222.78 7.526C222.948 7.974 223.032 8.429 223.032 8.891C223.032 9.619 222.85 10.305 222.486 10.949C222.122 11.579 221.59 12.048 220.89 12.356C221.744 12.608 222.416 13.063 222.906 13.721C223.41 14.365 223.662 15.177 223.662 16.157ZM220.743 15.611C220.743 15.345 220.694 15.093 220.596 14.855C220.512 14.603 220.393 14.386 220.239 14.204C220.085 14.022 219.903 13.882 219.693 13.784C219.483 13.672 219.252 13.616 219 13.616H214.548V17.543H218.853C219.119 17.543 219.364 17.494 219.588 17.396C219.826 17.298 220.029 17.165 220.197 16.997C220.365 16.815 220.498 16.605 220.596 16.367C220.694 16.129 220.743 15.877 220.743 15.611ZM214.548 7.568V11.327H218.412C218.902 11.327 219.315 11.159 219.651 10.823C220.001 10.487 220.176 10.025 220.176 9.437C220.176 8.863 220.015 8.408 219.693 8.072C219.385 7.736 219 7.568 218.538 7.568H214.548ZM229.011 20.21C227.877 20.21 227.016 19.846 226.428 19.118C225.84 18.39 225.546 17.312 225.546 15.884V8.996H228.36V15.275C228.36 16.969 228.969 17.816 230.187 17.816C230.733 17.816 231.258 17.655 231.762 17.333C232.28 16.997 232.7 16.493 233.022 15.821V8.996H235.836V16.766C235.836 17.06 235.885 17.27 235.983 17.396C236.095 17.522 236.27 17.592 236.508 17.606V20C236.228 20.056 235.99 20.091 235.794 20.105C235.612 20.119 235.444 20.126 235.29 20.126C234.786 20.126 234.373 20.014 234.051 19.79C233.743 19.552 233.561 19.23 233.505 18.824L233.442 17.942C232.952 18.698 232.322 19.265 231.552 19.643C230.782 20.021 229.935 20.21 229.011 20.21ZM238.632 20V8.996H241.446V20H238.632ZM238.632 7.463V4.67H241.446V7.463H238.632ZM243.964 4.67H246.778V16.472C246.778 16.878 246.876 17.193 247.072 17.417C247.268 17.641 247.548 17.753 247.912 17.753C248.08 17.753 248.262 17.725 248.458 17.669C248.668 17.613 248.864 17.543 249.046 17.459L249.424 19.601C249.046 19.783 248.605 19.923 248.101 20.021C247.597 20.119 247.142 20.168 246.736 20.168C245.854 20.168 245.168 19.937 244.678 19.475C244.202 18.999 243.964 18.327 243.964 17.459V4.67ZM255.207 20.21C254.451 20.21 253.751 20.063 253.107 19.769C252.463 19.475 251.91 19.069 251.448 18.551C250.986 18.033 250.622 17.431 250.356 16.745C250.104 16.045 249.978 15.296 249.978 14.498C249.978 13.7 250.097 12.958 250.335 12.272C250.587 11.586 250.93 10.984 251.364 10.466C251.798 9.948 252.316 9.542 252.918 9.248C253.52 8.954 254.178 8.807 254.892 8.807C255.704 8.807 256.432 9.003 257.076 9.395C257.734 9.787 258.245 10.298 258.609 10.928V4.67H261.423V16.766C261.423 17.06 261.472 17.27 261.57 17.396C261.668 17.522 261.836 17.592 262.074 17.606V20C261.584 20.098 261.185 20.147 260.877 20.147C260.373 20.147 259.96 20.021 259.638 19.769C259.316 19.517 259.134 19.188 259.092 18.782L259.029 18.089C258.623 18.789 258.07 19.321 257.37 19.685C256.684 20.035 255.963 20.21 255.207 20.21ZM255.942 17.816C256.208 17.816 256.481 17.774 256.761 17.69C257.041 17.592 257.3 17.459 257.538 17.291C257.776 17.123 257.986 16.927 258.168 16.703C258.364 16.479 258.511 16.234 258.609 15.968V13.343C258.497 13.035 258.336 12.755 258.126 12.503C257.93 12.237 257.699 12.013 257.433 11.831C257.181 11.635 256.908 11.481 256.614 11.369C256.334 11.257 256.054 11.201 255.774 11.201C255.354 11.201 254.962 11.292 254.598 11.474C254.248 11.656 253.947 11.908 253.695 12.23C253.443 12.538 253.247 12.895 253.107 13.301C252.967 13.707 252.897 14.127 252.897 14.561C252.897 15.023 252.974 15.45 253.128 15.842C253.282 16.234 253.492 16.577 253.758 16.871C254.024 17.165 254.339 17.396 254.703 17.564C255.081 17.732 255.494 17.816 255.942 17.816ZM198.311 39.16C197.917 39.16 197.549 39.096 197.207 38.968C196.866 38.8293 196.567 38.6427 196.311 38.408C196.066 38.1733 195.869 37.9013 195.719 37.592C195.581 37.272 195.511 36.9253 195.511 36.552C195.511 36.168 195.597 35.8213 195.767 35.512C195.938 35.192 196.178 34.92 196.487 34.696C196.807 34.472 197.181 34.296 197.607 34.168C198.045 34.04 198.519 33.976 199.031 33.976C199.437 33.976 199.847 34.0133 200.263 34.088C200.679 34.1627 201.047 34.264 201.367 34.392V33.72C201.367 33.0373 201.175 32.504 200.791 32.12C200.407 31.7253 199.863 31.528 199.159 31.528C198.317 31.528 197.431 31.8533 196.503 32.504L196.039 31.592C197.117 30.8667 198.199 30.504 199.287 30.504C200.386 30.504 201.239 30.7973 201.847 31.384C202.466 31.9707 202.775 32.7973 202.775 33.864V37.272C202.775 37.6027 202.925 37.7733 203.223 37.784V39C203.074 39.0213 202.951 39.0373 202.855 39.048C202.759 39.0587 202.658 39.064 202.551 39.064C202.274 39.064 202.05 38.984 201.879 38.824C201.719 38.6533 201.623 38.4507 201.591 38.216L201.559 37.624C201.186 38.1253 200.711 38.5093 200.135 38.776C199.57 39.032 198.962 39.16 198.311 39.16ZM198.679 38.104C199.181 38.104 199.645 38.0133 200.071 37.832C200.509 37.64 200.839 37.3893 201.063 37.08C201.266 36.8773 201.367 36.6693 201.367 36.456V35.224C200.685 34.9573 199.975 34.824 199.239 34.824C198.535 34.824 197.959 34.9733 197.511 35.272C197.074 35.5707 196.855 35.96 196.855 36.44C196.855 36.6747 196.898 36.8933 196.983 37.096C197.079 37.2987 197.207 37.4747 197.367 37.624C197.538 37.7733 197.735 37.8907 197.959 37.976C198.183 38.0613 198.423 38.104 198.679 38.104ZM212.275 39H210.867V34.328C210.867 33.432 210.728 32.7813 210.451 32.376C210.184 31.9707 209.773 31.768 209.219 31.768C208.931 31.768 208.643 31.8267 208.355 31.944C208.067 32.0507 207.795 32.2 207.539 32.392C207.283 32.584 207.059 32.8133 206.867 33.08C206.675 33.3467 206.531 33.64 206.435 33.96V39H205.027V30.648H206.307V32.44C206.637 31.8533 207.112 31.384 207.731 31.032C208.36 30.68 209.043 30.504 209.779 30.504C210.259 30.504 210.659 30.5947 210.979 30.776C211.299 30.9467 211.555 31.192 211.747 31.512C211.939 31.8213 212.072 32.1893 212.147 32.616C212.232 33.0427 212.275 33.5067 212.275 34.008V39ZM217.904 39.16C217.328 39.16 216.795 39.0427 216.304 38.808C215.813 38.5733 215.392 38.2587 215.04 37.864C214.688 37.4693 214.411 37.0107 214.208 36.488C214.016 35.9653 213.92 35.416 213.92 34.84C213.92 34.2533 214.011 33.6987 214.192 33.176C214.384 32.6427 214.645 32.1787 214.976 31.784C215.317 31.3893 215.717 31.08 216.176 30.856C216.645 30.6213 217.157 30.504 217.712 30.504C218.384 30.504 218.981 30.68 219.504 31.032C220.037 31.384 220.459 31.8107 220.768 32.312V27.32H222.176V37.272C222.176 37.6027 222.325 37.7733 222.624 37.784V39C222.475 39.0213 222.352 39.0373 222.256 39.048C222.171 39.0587 222.085 39.064 222 39.064C221.723 39.064 221.477 38.9733 221.264 38.792C221.061 38.6 220.96 38.3813 220.96 38.136V37.432C220.629 37.976 220.187 38.4027 219.632 38.712C219.088 39.0107 218.512 39.16 217.904 39.16ZM218.24 37.944C218.496 37.944 218.757 37.896 219.024 37.8C219.301 37.704 219.557 37.5707 219.792 37.4C220.037 37.2293 220.245 37.032 220.416 36.808C220.597 36.5733 220.715 36.328 220.768 36.072V33.672C220.672 33.4053 220.528 33.1547 220.336 32.92C220.144 32.6747 219.925 32.4667 219.68 32.296C219.445 32.1147 219.189 31.976 218.912 31.88C218.645 31.7733 218.379 31.72 218.112 31.72C217.696 31.72 217.317 31.8107 216.976 31.992C216.645 32.1627 216.357 32.3973 216.112 32.696C215.877 32.984 215.696 33.32 215.568 33.704C215.44 34.0773 215.376 34.4613 215.376 34.856C215.376 35.272 215.451 35.672 215.6 36.056C215.749 36.4293 215.952 36.7547 216.208 37.032C216.464 37.3093 216.763 37.5333 217.104 37.704C217.456 37.864 217.835 37.944 218.24 37.944ZM232.014 39.16C231.438 39.16 230.904 39.0427 230.414 38.808C229.923 38.5733 229.502 38.2587 229.15 37.864C228.798 37.4693 228.52 37.0107 228.318 36.488C228.126 35.9653 228.03 35.416 228.03 34.84C228.03 34.2533 228.12 33.6987 228.302 33.176C228.494 32.6427 228.755 32.1787 229.086 31.784C229.427 31.3893 229.827 31.08 230.286 30.856C230.755 30.6213 231.267 30.504 231.822 30.504C232.494 30.504 233.091 30.68 233.614 31.032C234.147 31.384 234.568 31.8107 234.878 32.312V27.32H236.286V37.272C236.286 37.6027 236.435 37.7733 236.734 37.784V39C236.584 39.0213 236.462 39.0373 236.366 39.048C236.28 39.0587 236.195 39.064 236.11 39.064C235.832 39.064 235.587 38.9733 235.374 38.792C235.171 38.6 235.07 38.3813 235.07 38.136V37.432C234.739 37.976 234.296 38.4027 233.742 38.712C233.198 39.0107 232.622 39.16 232.014 39.16ZM232.35 37.944C232.606 37.944 232.867 37.896 233.134 37.8C233.411 37.704 233.667 37.5707 233.902 37.4C234.147 37.2293 234.355 37.032 234.526 36.808C234.707 36.5733 234.824 36.328 234.878 36.072V33.672C234.782 33.4053 234.638 33.1547 234.446 32.92C234.254 32.6747 234.035 32.4667 233.79 32.296C233.555 32.1147 233.299 31.976 233.022 31.88C232.755 31.7733 232.488 31.72 232.222 31.72C231.806 31.72 231.427 31.8107 231.086 31.992C230.755 32.1627 230.467 32.3973 230.222 32.696C229.987 32.984 229.806 33.32 229.678 33.704C229.55 34.0773 229.486 34.4613 229.486 34.856C229.486 35.272 229.56 35.672 229.71 36.056C229.859 36.4293 230.062 36.7547 230.318 37.032C230.574 37.3093 230.872 37.5333 231.214 37.704C231.566 37.864 231.944 37.944 232.35 37.944ZM242.332 39.16C241.703 39.16 241.127 39.048 240.604 38.824C240.081 38.5893 239.633 38.2747 239.26 37.88C238.887 37.4853 238.593 37.0267 238.38 36.504C238.177 35.9707 238.076 35.4107 238.076 34.824C238.076 34.2373 238.177 33.6827 238.38 33.16C238.593 32.6373 238.887 32.1787 239.26 31.784C239.644 31.3893 240.097 31.08 240.62 30.856C241.143 30.6213 241.719 30.504 242.348 30.504C242.977 30.504 243.548 30.6213 244.06 30.856C244.583 31.0907 245.025 31.4053 245.388 31.8C245.751 32.184 246.028 32.6373 246.22 33.16C246.423 33.672 246.524 34.2053 246.524 34.76C246.524 34.8773 246.519 34.984 246.508 35.08C246.508 35.176 246.503 35.2507 246.492 35.304H239.564C239.596 35.72 239.692 36.0987 239.852 36.44C240.012 36.7813 240.22 37.0747 240.476 37.32C240.732 37.5653 241.02 37.7573 241.34 37.896C241.671 38.0347 242.017 38.104 242.38 38.104C242.636 38.104 242.887 38.072 243.132 38.008C243.377 37.9333 243.607 37.8373 243.82 37.72C244.033 37.6027 244.22 37.4587 244.38 37.288C244.551 37.1173 244.679 36.9253 244.764 36.712L245.98 37.048C245.841 37.3573 245.649 37.64 245.404 37.896C245.169 38.152 244.892 38.376 244.572 38.568C244.263 38.7493 243.916 38.8933 243.532 39C243.148 39.1067 242.748 39.16 242.332 39.16ZM245.196 34.264C245.164 33.8693 245.063 33.5067 244.892 33.176C244.732 32.8347 244.524 32.5467 244.268 32.312C244.023 32.0773 243.735 31.896 243.404 31.768C243.073 31.6293 242.721 31.56 242.348 31.56C241.975 31.56 241.623 31.6293 241.292 31.768C240.961 31.896 240.668 32.0827 240.412 32.328C240.167 32.5627 239.964 32.8453 239.804 33.176C239.655 33.5067 239.564 33.8693 239.532 34.264H245.196ZM251.017 39.16C250.345 39.16 249.684 39.0587 249.033 38.856C248.382 38.6427 247.822 38.3387 247.353 37.944L247.961 37C248.452 37.3733 248.942 37.656 249.433 37.848C249.924 38.0293 250.441 38.12 250.985 38.12C251.593 38.12 252.073 38.0027 252.425 37.768C252.788 37.5227 252.969 37.1813 252.969 36.744C252.969 36.5413 252.921 36.3707 252.825 36.232C252.729 36.0827 252.585 35.9547 252.393 35.848C252.201 35.7413 251.956 35.6453 251.657 35.56C251.358 35.4747 251.012 35.384 250.617 35.288C250.116 35.16 249.684 35.0373 249.321 34.92C248.958 34.8027 248.66 34.664 248.425 34.504C248.19 34.344 248.02 34.152 247.913 33.928C247.806 33.704 247.753 33.4267 247.753 33.096C247.753 32.68 247.833 32.312 247.993 31.992C248.164 31.6613 248.393 31.3893 248.681 31.176C248.969 30.952 249.305 30.7867 249.689 30.68C250.084 30.5627 250.505 30.504 250.953 30.504C251.582 30.504 252.169 30.6053 252.713 30.808C253.257 31.0107 253.716 31.2773 254.089 31.608L253.449 32.456C253.097 32.1467 252.702 31.9173 252.265 31.768C251.828 31.608 251.38 31.528 250.921 31.528C250.409 31.528 249.972 31.64 249.609 31.864C249.257 32.0773 249.081 32.424 249.081 32.904C249.081 33.096 249.113 33.256 249.177 33.384C249.252 33.512 249.369 33.624 249.529 33.72C249.689 33.816 249.892 33.9013 250.137 33.976C250.393 34.0507 250.697 34.1307 251.049 34.216C251.604 34.344 252.084 34.4773 252.489 34.616C252.905 34.744 253.246 34.8987 253.513 35.08C253.79 35.2613 253.993 35.4747 254.121 35.72C254.26 35.9653 254.329 36.264 254.329 36.616C254.329 37.3947 254.03 38.0133 253.433 38.472C252.836 38.9307 252.03 39.16 251.017 39.16ZM255.995 39V30.648H257.403V39H255.995ZM255.995 29.08V27.32H257.403V29.08H255.995ZM263.011 39.096C262.446 39.096 261.923 38.9787 261.443 38.744C260.974 38.5093 260.568 38.1947 260.227 37.8C259.886 37.4053 259.619 36.952 259.427 36.44C259.246 35.928 259.155 35.3947 259.155 34.84C259.155 34.2533 259.246 33.6987 259.427 33.176C259.619 32.6427 259.886 32.1787 260.227 31.784C260.568 31.3893 260.974 31.08 261.443 30.856C261.923 30.6213 262.451 30.504 263.027 30.504C263.731 30.504 264.339 30.6747 264.851 31.016C265.363 31.3573 265.795 31.7893 266.147 32.312V30.648H267.395V38.904C267.395 39.5013 267.283 40.024 267.059 40.472C266.835 40.9307 266.531 41.3147 266.147 41.624C265.763 41.9333 265.31 42.168 264.787 42.328C264.275 42.488 263.726 42.568 263.139 42.568C262.19 42.568 261.416 42.4027 260.819 42.072C260.232 41.752 259.742 41.304 259.347 40.728L260.163 40.008C260.494 40.4987 260.92 40.8667 261.443 41.112C261.966 41.3573 262.531 41.48 263.139 41.48C263.523 41.48 263.886 41.4267 264.227 41.32C264.579 41.2133 264.883 41.0533 265.139 40.84C265.395 40.6267 265.598 40.36 265.747 40.04C265.907 39.72 265.987 39.3413 265.987 38.904V37.432C265.827 37.688 265.635 37.9227 265.411 38.136C265.198 38.3387 264.963 38.5147 264.707 38.664C264.451 38.8027 264.179 38.9093 263.891 38.984C263.603 39.0587 263.31 39.096 263.011 39.096ZM263.443 37.944C263.742 37.944 264.03 37.8907 264.307 37.784C264.584 37.6773 264.84 37.5387 265.075 37.368C265.31 37.1867 265.507 36.984 265.667 36.76C265.827 36.536 265.934 36.3067 265.987 36.072V33.672C265.87 33.384 265.715 33.1227 265.523 32.888C265.342 32.6533 265.134 32.4507 264.899 32.28C264.664 32.0987 264.408 31.96 264.131 31.864C263.864 31.768 263.592 31.72 263.315 31.72C262.888 31.72 262.504 31.8107 262.163 31.992C261.832 32.1733 261.55 32.4133 261.315 32.712C261.08 33.0107 260.899 33.352 260.771 33.736C260.643 34.1093 260.579 34.488 260.579 34.872C260.579 35.288 260.654 35.6827 260.803 36.056C260.952 36.4293 261.155 36.7547 261.411 37.032C261.667 37.3093 261.966 37.5333 262.307 37.704C262.659 37.864 263.038 37.944 263.443 37.944ZM276.915 39H275.507V34.328C275.507 33.432 275.369 32.7813 275.091 32.376C274.825 31.9707 274.414 31.768 273.859 31.768C273.571 31.768 273.283 31.8267 272.995 31.944C272.707 32.0507 272.435 32.2 272.179 32.392C271.923 32.584 271.699 32.8133 271.507 33.08C271.315 33.3467 271.171 33.64 271.075 33.96V39H269.667V30.648H270.947V32.44C271.278 31.8533 271.753 31.384 272.371 31.032C273.001 30.68 273.683 30.504 274.419 30.504C274.899 30.504 275.299 30.5947 275.619 30.776C275.939 30.9467 276.195 31.192 276.387 31.512C276.579 31.8213 276.713 32.1893 276.787 32.616C276.873 33.0427 276.915 33.5067 276.915 34.008V39Z" fill="white"/>
<path d="M187.997 278V263.09H194.318C195.004 263.09 195.634 263.237 196.208 263.531C196.796 263.811 197.3 264.189 197.72 264.665C198.14 265.127 198.469 265.659 198.707 266.261C198.945 266.849 199.064 267.444 199.064 268.046C199.064 268.676 198.952 269.292 198.728 269.894C198.504 270.482 198.189 271.007 197.783 271.469C197.377 271.931 196.887 272.302 196.313 272.582C195.739 272.862 195.109 273.002 194.423 273.002H190.895V278H187.997ZM190.895 270.461H194.255C194.787 270.461 195.228 270.244 195.578 269.81C195.942 269.376 196.124 268.788 196.124 268.046C196.124 267.668 196.068 267.332 195.956 267.038C195.844 266.73 195.697 266.471 195.515 266.261C195.333 266.051 195.116 265.897 194.864 265.799C194.626 265.687 194.381 265.631 194.129 265.631H190.895V270.461ZM207.36 269.432C206.506 269.446 205.743 269.614 205.071 269.936C204.399 270.244 203.916 270.713 203.622 271.343V278H200.808V266.996H203.391V269.348C203.587 268.97 203.818 268.634 204.084 268.34C204.35 268.032 204.637 267.766 204.945 267.542C205.253 267.318 205.561 267.15 205.869 267.038C206.191 266.912 206.499 266.849 206.793 266.849C206.947 266.849 207.059 266.849 207.129 266.849C207.213 266.849 207.29 266.856 207.36 266.87V269.432ZM213.457 278.21C212.561 278.21 211.756 278.056 211.042 277.748C210.328 277.44 209.719 277.027 209.215 276.509C208.725 275.977 208.347 275.368 208.081 274.682C207.815 273.996 207.682 273.275 207.682 272.519C207.682 271.749 207.815 271.021 208.081 270.335C208.347 269.649 208.725 269.047 209.215 268.529C209.719 267.997 210.328 267.577 211.042 267.269C211.756 266.961 212.561 266.807 213.457 266.807C214.353 266.807 215.151 266.961 215.851 267.269C216.565 267.577 217.167 267.997 217.657 268.529C218.161 269.047 218.546 269.649 218.812 270.335C219.078 271.021 219.211 271.749 219.211 272.519C219.211 273.275 219.078 273.996 218.812 274.682C218.546 275.368 218.168 275.977 217.678 276.509C217.188 277.027 216.586 277.44 215.872 277.748C215.158 278.056 214.353 278.21 213.457 278.21ZM210.58 272.519C210.58 273.009 210.65 273.457 210.79 273.863C210.944 274.255 211.147 274.598 211.399 274.892C211.665 275.186 211.973 275.417 212.323 275.585C212.673 275.739 213.051 275.816 213.457 275.816C213.863 275.816 214.241 275.739 214.591 275.585C214.941 275.417 215.242 275.186 215.494 274.892C215.76 274.598 215.963 274.248 216.103 273.842C216.257 273.436 216.334 272.988 216.334 272.498C216.334 272.022 216.257 271.581 216.103 271.175C215.963 270.769 215.76 270.419 215.494 270.125C215.242 269.831 214.941 269.607 214.591 269.453C214.241 269.285 213.863 269.201 213.457 269.201C213.051 269.201 212.673 269.285 212.323 269.453C211.973 269.621 211.665 269.852 211.399 270.146C211.147 270.44 210.944 270.79 210.79 271.196C210.65 271.602 210.58 272.043 210.58 272.519ZM227.561 277.433C227.183 277.601 226.721 277.769 226.175 277.937C225.629 278.105 225.055 278.189 224.453 278.189C224.061 278.189 223.69 278.14 223.34 278.042C223.004 277.944 222.703 277.79 222.437 277.58C222.185 277.356 221.982 277.076 221.828 276.74C221.674 276.39 221.597 275.97 221.597 275.48V269.159H220.148V266.996H221.597V263.426H224.411V266.996H226.721V269.159H224.411V274.535C224.411 274.927 224.509 275.207 224.705 275.375C224.915 275.529 225.167 275.606 225.461 275.606C225.755 275.606 226.042 275.557 226.322 275.459C226.602 275.361 226.826 275.277 226.994 275.207L227.561 277.433ZM233.842 278.21C232.946 278.21 232.141 278.056 231.427 277.748C230.713 277.44 230.104 277.027 229.6 276.509C229.11 275.977 228.732 275.368 228.466 274.682C228.2 273.996 228.067 273.275 228.067 272.519C228.067 271.749 228.2 271.021 228.466 270.335C228.732 269.649 229.11 269.047 229.6 268.529C230.104 267.997 230.713 267.577 231.427 267.269C232.141 266.961 232.946 266.807 233.842 266.807C234.738 266.807 235.536 266.961 236.236 267.269C236.95 267.577 237.552 267.997 238.042 268.529C238.546 269.047 238.931 269.649 239.197 270.335C239.463 271.021 239.596 271.749 239.596 272.519C239.596 273.275 239.463 273.996 239.197 274.682C238.931 275.368 238.553 275.977 238.063 276.509C237.573 277.027 236.971 277.44 236.257 277.748C235.543 278.056 234.738 278.21 233.842 278.21ZM230.965 272.519C230.965 273.009 231.035 273.457 231.175 273.863C231.329 274.255 231.532 274.598 231.784 274.892C232.05 275.186 232.358 275.417 232.708 275.585C233.058 275.739 233.436 275.816 233.842 275.816C234.248 275.816 234.626 275.739 234.976 275.585C235.326 275.417 235.627 275.186 235.879 274.892C236.145 274.598 236.348 274.248 236.488 273.842C236.642 273.436 236.719 272.988 236.719 272.498C236.719 272.022 236.642 271.581 236.488 271.175C236.348 270.769 236.145 270.419 235.879 270.125C235.627 269.831 235.326 269.607 234.976 269.453C234.626 269.285 234.248 269.201 233.842 269.201C233.436 269.201 233.058 269.285 232.708 269.453C232.358 269.621 232.05 269.852 231.784 270.146C231.532 270.44 231.329 270.79 231.175 271.196C231.035 271.602 230.965 272.043 230.965 272.519ZM247.946 277.433C247.568 277.601 247.106 277.769 246.56 277.937C246.014 278.105 245.44 278.189 244.838 278.189C244.446 278.189 244.075 278.14 243.725 278.042C243.389 277.944 243.088 277.79 242.822 277.58C242.57 277.356 242.367 277.076 242.213 276.74C242.059 276.39 241.982 275.97 241.982 275.48V269.159H240.533V266.996H241.982V263.426H244.796V266.996H247.106V269.159H244.796V274.535C244.796 274.927 244.894 275.207 245.09 275.375C245.3 275.529 245.552 275.606 245.846 275.606C246.14 275.606 246.427 275.557 246.707 275.459C246.987 275.361 247.211 275.277 247.379 275.207L247.946 277.433ZM249.642 280.142C249.88 280.212 250.111 280.261 250.335 280.289C250.559 280.331 250.748 280.352 250.902 280.352C251.084 280.352 251.252 280.317 251.406 280.247C251.56 280.177 251.7 280.051 251.826 279.869C251.952 279.701 252.078 279.463 252.204 279.155C252.33 278.847 252.463 278.462 252.603 278L248.256 266.996H251.154L254.136 275.564L256.782 266.996H259.428L254.808 280.184C254.542 280.954 254.087 281.584 253.443 282.074C252.799 282.564 252.001 282.809 251.049 282.809C250.825 282.809 250.594 282.788 250.356 282.746C250.132 282.718 249.894 282.662 249.642 282.578V280.142ZM267.551 278.21C266.683 278.21 265.927 278.021 265.283 277.643C264.639 277.251 264.135 276.726 263.771 276.068V282.473H260.957V266.996H263.414V268.886C263.82 268.242 264.345 267.738 264.989 267.374C265.633 266.996 266.375 266.807 267.215 266.807C267.957 266.807 268.643 266.961 269.273 267.269C269.903 267.563 270.442 267.969 270.89 268.487C271.352 268.991 271.709 269.593 271.961 270.293C272.227 270.979 272.36 271.707 272.36 272.477C272.36 273.275 272.241 274.024 272.003 274.724C271.765 275.424 271.429 276.033 270.995 276.551C270.575 277.069 270.071 277.475 269.483 277.769C268.895 278.063 268.251 278.21 267.551 278.21ZM266.606 275.816C267.026 275.816 267.411 275.725 267.761 275.543C268.125 275.361 268.433 275.116 268.685 274.808C268.937 274.5 269.133 274.143 269.273 273.737C269.413 273.331 269.483 272.911 269.483 272.477C269.483 272.015 269.406 271.588 269.252 271.196C269.098 270.79 268.881 270.44 268.601 270.146C268.335 269.852 268.013 269.621 267.635 269.453C267.271 269.285 266.872 269.201 266.438 269.201C266.172 269.201 265.899 269.25 265.619 269.348C265.339 269.432 265.08 269.558 264.842 269.726C264.604 269.894 264.387 270.09 264.191 270.314C264.009 270.538 263.869 270.783 263.771 271.049V273.632C264.023 274.262 264.408 274.787 264.926 275.207C265.444 275.613 266.004 275.816 266.606 275.816ZM279.37 278.21C278.488 278.21 277.69 278.063 276.976 277.769C276.262 277.461 275.653 277.048 275.149 276.53C274.645 276.012 274.253 275.41 273.973 274.724C273.707 274.038 273.574 273.317 273.574 272.561C273.574 271.777 273.707 271.042 273.973 270.356C274.239 269.656 274.624 269.047 275.128 268.529C275.632 267.997 276.241 267.577 276.955 267.269C277.683 266.961 278.495 266.807 279.391 266.807C280.287 266.807 281.085 266.961 281.785 267.269C282.499 267.577 283.101 267.99 283.591 268.508C284.095 269.026 284.473 269.628 284.725 270.314C284.991 271 285.124 271.714 285.124 272.456C285.124 272.638 285.117 272.813 285.103 272.981C285.103 273.149 285.089 273.289 285.061 273.401H276.556C276.598 273.835 276.703 274.22 276.871 274.556C277.039 274.892 277.256 275.179 277.522 275.417C277.788 275.655 278.089 275.837 278.425 275.963C278.761 276.089 279.111 276.152 279.475 276.152C280.035 276.152 280.56 276.019 281.05 275.753C281.554 275.473 281.897 275.109 282.079 274.661L284.494 275.333C284.088 276.173 283.437 276.866 282.541 277.412C281.659 277.944 280.602 278.21 279.37 278.21ZM282.226 271.574C282.156 270.748 281.848 270.09 281.302 269.6C280.77 269.096 280.119 268.844 279.349 268.844C278.971 268.844 278.614 268.914 278.278 269.054C277.956 269.18 277.669 269.362 277.417 269.6C277.165 269.838 276.955 270.125 276.787 270.461C276.633 270.797 276.542 271.168 276.514 271.574H282.226ZM208.827 297.16C208.432 297.16 208.064 297.096 207.723 296.968C207.382 296.829 207.083 296.643 206.827 296.408C206.582 296.173 206.384 295.901 206.235 295.592C206.096 295.272 206.027 294.925 206.027 294.552C206.027 294.168 206.112 293.821 206.283 293.512C206.454 293.192 206.694 292.92 207.003 292.696C207.323 292.472 207.696 292.296 208.123 292.168C208.56 292.04 209.035 291.976 209.547 291.976C209.952 291.976 210.363 292.013 210.779 292.088C211.195 292.163 211.563 292.264 211.883 292.392V291.72C211.883 291.037 211.691 290.504 211.307 290.12C210.923 289.725 210.379 289.528 209.675 289.528C208.832 289.528 207.947 289.853 207.019 290.504L206.555 289.592C207.632 288.867 208.715 288.504 209.803 288.504C210.902 288.504 211.755 288.797 212.363 289.384C212.982 289.971 213.291 290.797 213.291 291.864V295.272C213.291 295.603 213.44 295.773 213.739 295.784V297C213.59 297.021 213.467 297.037 213.371 297.048C213.275 297.059 213.174 297.064 213.067 297.064C212.79 297.064 212.566 296.984 212.395 296.824C212.235 296.653 212.139 296.451 212.107 296.216L212.075 295.624C211.702 296.125 211.227 296.509 210.651 296.776C210.086 297.032 209.478 297.16 208.827 297.16ZM209.195 296.104C209.696 296.104 210.16 296.013 210.587 295.832C211.024 295.64 211.355 295.389 211.579 295.08C211.782 294.877 211.883 294.669 211.883 294.456V293.224C211.2 292.957 210.491 292.824 209.755 292.824C209.051 292.824 208.475 292.973 208.027 293.272C207.59 293.571 207.371 293.96 207.371 294.44C207.371 294.675 207.414 294.893 207.499 295.096C207.595 295.299 207.723 295.475 207.883 295.624C208.054 295.773 208.251 295.891 208.475 295.976C208.699 296.061 208.939 296.104 209.195 296.104ZM222.79 297H221.382V292.328C221.382 291.432 221.244 290.781 220.966 290.376C220.7 289.971 220.289 289.768 219.734 289.768C219.446 289.768 219.158 289.827 218.87 289.944C218.582 290.051 218.31 290.2 218.054 290.392C217.798 290.584 217.574 290.813 217.382 291.08C217.19 291.347 217.046 291.64 216.95 291.96V297H215.542V288.648H216.822V290.44C217.153 289.853 217.628 289.384 218.246 289.032C218.876 288.68 219.558 288.504 220.294 288.504C220.774 288.504 221.174 288.595 221.494 288.776C221.814 288.947 222.07 289.192 222.262 289.512C222.454 289.821 222.588 290.189 222.662 290.616C222.748 291.043 222.79 291.507 222.79 292.008V297ZM228.42 297.16C227.844 297.16 227.31 297.043 226.82 296.808C226.329 296.573 225.908 296.259 225.556 295.864C225.204 295.469 224.926 295.011 224.724 294.488C224.532 293.965 224.436 293.416 224.436 292.84C224.436 292.253 224.526 291.699 224.708 291.176C224.9 290.643 225.161 290.179 225.492 289.784C225.833 289.389 226.233 289.08 226.692 288.856C227.161 288.621 227.673 288.504 228.228 288.504C228.9 288.504 229.497 288.68 230.02 289.032C230.553 289.384 230.974 289.811 231.284 290.312V285.32H232.692V295.272C232.692 295.603 232.841 295.773 233.14 295.784V297C232.99 297.021 232.868 297.037 232.772 297.048C232.686 297.059 232.601 297.064 232.516 297.064C232.238 297.064 231.993 296.973 231.78 296.792C231.577 296.6 231.476 296.381 231.476 296.136V295.432C231.145 295.976 230.702 296.403 230.148 296.712C229.604 297.011 229.028 297.16 228.42 297.16ZM228.756 295.944C229.012 295.944 229.273 295.896 229.54 295.8C229.817 295.704 230.073 295.571 230.308 295.4C230.553 295.229 230.761 295.032 230.932 294.808C231.113 294.573 231.23 294.328 231.284 294.072V291.672C231.188 291.405 231.044 291.155 230.852 290.92C230.66 290.675 230.441 290.467 230.196 290.296C229.961 290.115 229.705 289.976 229.428 289.88C229.161 289.773 228.894 289.72 228.628 289.72C228.212 289.72 227.833 289.811 227.492 289.992C227.161 290.163 226.873 290.397 226.628 290.696C226.393 290.984 226.212 291.32 226.084 291.704C225.956 292.077 225.892 292.461 225.892 292.856C225.892 293.272 225.966 293.672 226.116 294.056C226.265 294.429 226.468 294.755 226.724 295.032C226.98 295.309 227.278 295.533 227.62 295.704C227.972 295.864 228.35 295.944 228.756 295.944ZM243.409 296.584C243.324 296.627 243.212 296.68 243.073 296.744C242.934 296.797 242.774 296.856 242.593 296.92C242.422 296.973 242.23 297.016 242.017 297.048C241.814 297.091 241.601 297.112 241.377 297.112C240.865 297.112 240.422 296.973 240.049 296.696C239.676 296.408 239.489 295.965 239.489 295.368V289.752H238.353V288.648H239.489V285.864H240.897V288.648H242.769V289.752H240.897V294.936C240.918 295.245 241.02 295.469 241.201 295.608C241.382 295.747 241.596 295.816 241.841 295.816C242.118 295.816 242.369 295.773 242.593 295.688C242.828 295.592 242.988 295.517 243.073 295.464L243.409 296.584ZM248.301 297.16C247.671 297.16 247.095 297.048 246.573 296.824C246.05 296.589 245.602 296.275 245.229 295.88C244.855 295.485 244.562 295.027 244.349 294.504C244.146 293.971 244.045 293.411 244.045 292.824C244.045 292.237 244.146 291.683 244.349 291.16C244.562 290.637 244.855 290.179 245.229 289.784C245.613 289.389 246.066 289.08 246.589 288.856C247.111 288.621 247.687 288.504 248.317 288.504C248.946 288.504 249.517 288.621 250.029 288.856C250.551 289.091 250.994 289.405 251.357 289.8C251.719 290.184 251.997 290.637 252.189 291.16C252.391 291.672 252.493 292.205 252.493 292.76C252.493 292.877 252.487 292.984 252.477 293.08C252.477 293.176 252.471 293.251 252.461 293.304H245.533C245.565 293.72 245.661 294.099 245.821 294.44C245.981 294.781 246.189 295.075 246.445 295.32C246.701 295.565 246.989 295.757 247.309 295.896C247.639 296.035 247.986 296.104 248.349 296.104C248.605 296.104 248.855 296.072 249.101 296.008C249.346 295.933 249.575 295.837 249.789 295.72C250.002 295.603 250.189 295.459 250.349 295.288C250.519 295.117 250.647 294.925 250.733 294.712L251.949 295.048C251.81 295.357 251.618 295.64 251.373 295.896C251.138 296.152 250.861 296.376 250.541 296.568C250.231 296.749 249.885 296.893 249.501 297C249.117 297.107 248.717 297.16 248.301 297.16ZM251.165 292.264C251.133 291.869 251.031 291.507 250.861 291.176C250.701 290.835 250.493 290.547 250.237 290.312C249.991 290.077 249.703 289.896 249.373 289.768C249.042 289.629 248.69 289.56 248.317 289.56C247.943 289.56 247.591 289.629 247.261 289.768C246.93 289.896 246.637 290.083 246.381 290.328C246.135 290.563 245.933 290.845 245.773 291.176C245.623 291.507 245.533 291.869 245.501 292.264H251.165ZM256.986 297.16C256.314 297.16 255.653 297.059 255.002 296.856C254.351 296.643 253.791 296.339 253.322 295.944L253.93 295C254.421 295.373 254.911 295.656 255.402 295.848C255.893 296.029 256.41 296.12 256.954 296.12C257.562 296.12 258.042 296.003 258.394 295.768C258.757 295.523 258.938 295.181 258.938 294.744C258.938 294.541 258.89 294.371 258.794 294.232C258.698 294.083 258.554 293.955 258.362 293.848C258.17 293.741 257.925 293.645 257.626 293.56C257.327 293.475 256.981 293.384 256.586 293.288C256.085 293.16 255.653 293.037 255.29 292.92C254.927 292.803 254.629 292.664 254.394 292.504C254.159 292.344 253.989 292.152 253.882 291.928C253.775 291.704 253.722 291.427 253.722 291.096C253.722 290.68 253.802 290.312 253.962 289.992C254.133 289.661 254.362 289.389 254.65 289.176C254.938 288.952 255.274 288.787 255.658 288.68C256.053 288.563 256.474 288.504 256.922 288.504C257.551 288.504 258.138 288.605 258.682 288.808C259.226 289.011 259.685 289.277 260.058 289.608L259.418 290.456C259.066 290.147 258.671 289.917 258.234 289.768C257.797 289.608 257.349 289.528 256.89 289.528C256.378 289.528 255.941 289.64 255.578 289.864C255.226 290.077 255.05 290.424 255.05 290.904C255.05 291.096 255.082 291.256 255.146 291.384C255.221 291.512 255.338 291.624 255.498 291.72C255.658 291.816 255.861 291.901 256.106 291.976C256.362 292.051 256.666 292.131 257.018 292.216C257.573 292.344 258.053 292.477 258.458 292.616C258.874 292.744 259.215 292.899 259.482 293.08C259.759 293.261 259.962 293.475 260.09 293.72C260.229 293.965 260.298 294.264 260.298 294.616C260.298 295.395 259.999 296.013 259.402 296.472C258.805 296.931 257.999 297.16 256.986 297.16ZM266.284 296.584C266.199 296.627 266.087 296.68 265.948 296.744C265.809 296.797 265.649 296.856 265.468 296.92C265.297 296.973 265.105 297.016 264.892 297.048C264.689 297.091 264.476 297.112 264.252 297.112C263.74 297.112 263.297 296.973 262.924 296.696C262.551 296.408 262.364 295.965 262.364 295.368V289.752H261.228V288.648H262.364V285.864H263.772V288.648H265.644V289.752H263.772V294.936C263.793 295.245 263.895 295.469 264.076 295.608C264.257 295.747 264.471 295.816 264.716 295.816C264.993 295.816 265.244 295.773 265.468 295.688C265.703 295.592 265.863 295.517 265.948 295.464L266.284 296.584Z" fill="white"/>
<circle cx="60.0307" cy="373.031" r="59.0307" fill="#39435B"/>
<circle cx="60.0307" cy="373.031" r="58.0307" stroke="white" stroke-width="2"/>
<path d="M49.8764 397.2C49.8777 397.962 50.1031 398.709 50.5261 399.344L52.5975 402.458C52.9513 402.99 53.4312 403.426 53.9946 403.728C54.5579 404.03 55.1872 404.188 55.8263 404.188H63.3058C63.9449 404.188 64.5742 404.03 65.1375 403.728C65.7008 403.426 66.1808 402.99 66.5346 402.458L68.606 399.344C69.0288 398.709 69.2548 397.963 69.2557 397.2L69.2605 392.552H49.8704L49.8764 397.2ZM38.2336 363.463C38.2336 368.841 40.2274 373.747 43.5133 377.496C45.5155 379.78 48.6474 384.553 49.8413 388.58C49.8461 388.611 49.8498 388.643 49.8546 388.674H69.2763C69.2811 388.643 69.2847 388.612 69.2896 388.58C70.4834 384.553 73.6153 379.78 75.6176 377.496C78.9034 373.747 80.8972 368.841 80.8972 363.463C80.8972 351.659 71.3113 342.095 59.4988 342.131C47.1348 342.169 38.2336 352.187 38.2336 363.463ZM59.5654 353.766C54.2192 353.766 49.8692 358.116 49.8692 363.463C49.8692 364.534 49.0014 365.402 47.9299 365.402C46.8585 365.402 45.9907 364.534 45.9907 363.463C45.9907 355.977 52.0799 349.888 59.5654 349.888C60.6369 349.888 61.5047 350.756 61.5047 351.827C61.5047 352.899 60.6369 353.766 59.5654 353.766Z" fill="#FFBA56"/>
<path d="M25.5382 263.09L29.5702 274.367L33.5602 263.09H36.6052L30.7882 278H28.3522L22.4932 263.09H25.5382ZM39.8807 278.21C39.3487 278.21 38.8517 278.126 38.3897 277.958C37.9277 277.776 37.5287 277.531 37.1927 277.223C36.8567 276.901 36.5907 276.53 36.3947 276.11C36.2127 275.69 36.1217 275.228 36.1217 274.724C36.1217 274.206 36.2337 273.73 36.4577 273.296C36.6957 272.848 37.0177 272.47 37.4237 272.162C37.8437 271.854 38.3407 271.616 38.9147 271.448C39.4887 271.266 40.1187 271.175 40.8047 271.175C41.2947 271.175 41.7707 271.217 42.2327 271.301C42.7087 271.385 43.1287 271.504 43.4927 271.658V271.028C43.4927 270.3 43.2827 269.74 42.8627 269.348C42.4567 268.956 41.8477 268.76 41.0357 268.76C40.4477 268.76 39.8737 268.865 39.3137 269.075C38.7537 269.285 38.1797 269.593 37.5917 269.999L36.7307 268.214C38.1447 267.276 39.6707 266.807 41.3087 266.807C42.8907 266.807 44.1157 267.199 44.9837 267.983C45.8657 268.753 46.3067 269.873 46.3067 271.343V274.766C46.3067 275.06 46.3557 275.27 46.4537 275.396C46.5657 275.522 46.7407 275.592 46.9787 275.606V278C46.5027 278.098 46.0897 278.147 45.7397 278.147C45.2077 278.147 44.7947 278.028 44.5007 277.79C44.2207 277.552 44.0457 277.237 43.9757 276.845L43.9127 276.236C43.4227 276.88 42.8277 277.37 42.1277 277.706C41.4277 278.042 40.6787 278.21 39.8807 278.21ZM40.6787 276.152C41.1547 276.152 41.6027 276.068 42.0227 275.9C42.4567 275.732 42.7927 275.508 43.0307 275.228C43.3387 274.99 43.4927 274.724 43.4927 274.43V273.17C43.1567 273.044 42.7927 272.946 42.4007 272.876C42.0087 272.792 41.6307 272.75 41.2667 272.75C40.5387 272.75 39.9437 272.918 39.4817 273.254C39.0197 273.576 38.7887 273.989 38.7887 274.493C38.7887 274.969 38.9707 275.368 39.3347 275.69C39.6987 275.998 40.1467 276.152 40.6787 276.152ZM48.9153 262.67H51.7293V274.472C51.7293 274.878 51.8273 275.193 52.0233 275.417C52.2193 275.641 52.4993 275.753 52.8633 275.753C53.0313 275.753 53.2133 275.725 53.4093 275.669C53.6193 275.613 53.8153 275.543 53.9973 275.459L54.3753 277.601C53.9973 277.783 53.5563 277.923 53.0523 278.021C52.5483 278.119 52.0933 278.168 51.6873 278.168C50.8053 278.168 50.1193 277.937 49.6293 277.475C49.1533 276.999 48.9153 276.327 48.9153 275.459V262.67ZM55.6013 278V266.996H58.4153V278H55.6013ZM55.6013 265.463V262.67H58.4153V265.463H55.6013ZM65.5109 278.21C64.7549 278.21 64.0549 278.063 63.4109 277.769C62.7669 277.475 62.2139 277.069 61.7519 276.551C61.2899 276.033 60.9259 275.431 60.6599 274.745C60.4079 274.045 60.2819 273.296 60.2819 272.498C60.2819 271.7 60.4009 270.958 60.6389 270.272C60.8909 269.586 61.2339 268.984 61.6679 268.466C62.1019 267.948 62.6199 267.542 63.2219 267.248C63.8239 266.954 64.4819 266.807 65.1959 266.807C66.0079 266.807 66.7359 267.003 67.3799 267.395C68.0379 267.787 68.5489 268.298 68.9129 268.928V262.67H71.7269V274.766C71.7269 275.06 71.7759 275.27 71.8739 275.396C71.9719 275.522 72.1399 275.592 72.3779 275.606V278C71.8879 278.098 71.4889 278.147 71.1809 278.147C70.6769 278.147 70.2639 278.021 69.9419 277.769C69.6199 277.517 69.4379 277.188 69.3959 276.782L69.3329 276.089C68.9269 276.789 68.3739 277.321 67.6739 277.685C66.9879 278.035 66.2669 278.21 65.5109 278.21ZM66.2459 275.816C66.5119 275.816 66.7849 275.774 67.0649 275.69C67.3449 275.592 67.6039 275.459 67.8419 275.291C68.0799 275.123 68.2899 274.927 68.4719 274.703C68.6679 274.479 68.8149 274.234 68.9129 273.968V271.343C68.8009 271.035 68.6399 270.755 68.4299 270.503C68.2339 270.237 68.0029 270.013 67.7369 269.831C67.4849 269.635 67.2119 269.481 66.9179 269.369C66.6379 269.257 66.3579 269.201 66.0779 269.201C65.6579 269.201 65.2659 269.292 64.9019 269.474C64.5519 269.656 64.2509 269.908 63.9989 270.23C63.7469 270.538 63.5509 270.895 63.4109 271.301C63.2709 271.707 63.2009 272.127 63.2009 272.561C63.2009 273.023 63.2779 273.45 63.4319 273.842C63.5859 274.234 63.7959 274.577 64.0619 274.871C64.3279 275.165 64.6429 275.396 65.0069 275.564C65.3849 275.732 65.7979 275.816 66.2459 275.816ZM77.492 278.21C76.96 278.21 76.463 278.126 76.001 277.958C75.539 277.776 75.14 277.531 74.804 277.223C74.468 276.901 74.202 276.53 74.006 276.11C73.824 275.69 73.733 275.228 73.733 274.724C73.733 274.206 73.845 273.73 74.069 273.296C74.307 272.848 74.629 272.47 75.035 272.162C75.455 271.854 75.952 271.616 76.526 271.448C77.1 271.266 77.73 271.175 78.416 271.175C78.906 271.175 79.382 271.217 79.844 271.301C80.32 271.385 80.74 271.504 81.104 271.658V271.028C81.104 270.3 80.894 269.74 80.474 269.348C80.068 268.956 79.459 268.76 78.647 268.76C78.059 268.76 77.485 268.865 76.925 269.075C76.365 269.285 75.791 269.593 75.203 269.999L74.342 268.214C75.756 267.276 77.282 266.807 78.92 266.807C80.502 266.807 81.727 267.199 82.595 267.983C83.477 268.753 83.918 269.873 83.918 271.343V274.766C83.918 275.06 83.967 275.27 84.065 275.396C84.177 275.522 84.352 275.592 84.59 275.606V278C84.114 278.098 83.701 278.147 83.351 278.147C82.819 278.147 82.406 278.028 82.112 277.79C81.832 277.552 81.657 277.237 81.587 276.845L81.524 276.236C81.034 276.88 80.439 277.37 79.739 277.706C79.039 278.042 78.29 278.21 77.492 278.21ZM78.29 276.152C78.766 276.152 79.214 276.068 79.634 275.9C80.068 275.732 80.404 275.508 80.642 275.228C80.95 274.99 81.104 274.724 81.104 274.43V273.17C80.768 273.044 80.404 272.946 80.012 272.876C79.62 272.792 79.242 272.75 78.878 272.75C78.15 272.75 77.555 272.918 77.093 273.254C76.631 273.576 76.4 273.989 76.4 274.493C76.4 274.969 76.582 275.368 76.946 275.69C77.31 275.998 77.758 276.152 78.29 276.152ZM93.0596 277.433C92.6816 277.601 92.2196 277.769 91.6736 277.937C91.1276 278.105 90.5536 278.189 89.9516 278.189C89.5596 278.189 89.1886 278.14 88.8386 278.042C88.5026 277.944 88.2016 277.79 87.9356 277.58C87.6836 277.356 87.4806 277.076 87.3266 276.74C87.1726 276.39 87.0956 275.97 87.0956 275.48V269.159H85.6466V266.996H87.0956V263.426H89.9096V266.996H92.2196V269.159H89.9096V274.535C89.9096 274.927 90.0076 275.207 90.2036 275.375C90.4136 275.529 90.6656 275.606 90.9596 275.606C91.2536 275.606 91.5406 275.557 91.8206 275.459C92.1006 275.361 92.3246 275.277 92.4926 275.207L93.0596 277.433ZM99.3615 278.21C98.4795 278.21 97.6815 278.063 96.9675 277.769C96.2535 277.461 95.6445 277.048 95.1405 276.53C94.6365 276.012 94.2445 275.41 93.9645 274.724C93.6985 274.038 93.5655 273.317 93.5655 272.561C93.5655 271.777 93.6985 271.042 93.9645 270.356C94.2305 269.656 94.6155 269.047 95.1195 268.529C95.6235 267.997 96.2325 267.577 96.9465 267.269C97.6745 266.961 98.4865 266.807 99.3825 266.807C100.279 266.807 101.077 266.961 101.777 267.269C102.491 267.577 103.093 267.99 103.583 268.508C104.087 269.026 104.465 269.628 104.717 270.314C104.983 271 105.116 271.714 105.116 272.456C105.116 272.638 105.109 272.813 105.095 272.981C105.095 273.149 105.081 273.289 105.053 273.401H96.5475C96.5895 273.835 96.6945 274.22 96.8625 274.556C97.0305 274.892 97.2475 275.179 97.5135 275.417C97.7795 275.655 98.0805 275.837 98.4165 275.963C98.7525 276.089 99.1025 276.152 99.4665 276.152C100.027 276.152 100.552 276.019 101.042 275.753C101.546 275.473 101.889 275.109 102.071 274.661L104.486 275.333C104.08 276.173 103.429 276.866 102.533 277.412C101.651 277.944 100.594 278.21 99.3615 278.21ZM102.218 271.574C102.148 270.748 101.84 270.09 101.294 269.6C100.762 269.096 100.111 268.844 99.3405 268.844C98.9625 268.844 98.6055 268.914 98.2695 269.054C97.9475 269.18 97.6605 269.362 97.4085 269.6C97.1565 269.838 96.9465 270.125 96.7785 270.461C96.6245 270.797 96.5335 271.168 96.5055 271.574H102.218ZM32.0066 297.16C31.6119 297.16 31.2439 297.096 30.9026 296.968C30.5612 296.829 30.2626 296.643 30.0066 296.408C29.7612 296.173 29.5639 295.901 29.4146 295.592C29.2759 295.272 29.2066 294.925 29.2066 294.552C29.2066 294.168 29.2919 293.821 29.4626 293.512C29.6332 293.192 29.8732 292.92 30.1826 292.696C30.5026 292.472 30.8759 292.296 31.3026 292.168C31.7399 292.04 32.2146 291.976 32.7266 291.976C33.1319 291.976 33.5426 292.013 33.9586 292.088C34.3746 292.163 34.7426 292.264 35.0626 292.392V291.72C35.0626 291.037 34.8706 290.504 34.4866 290.12C34.1026 289.725 33.5586 289.528 32.8546 289.528C32.0119 289.528 31.1266 289.853 30.1986 290.504L29.7346 289.592C30.8119 288.867 31.8946 288.504 32.9826 288.504C34.0812 288.504 34.9346 288.797 35.5426 289.384C36.1612 289.971 36.4706 290.797 36.4706 291.864V295.272C36.4706 295.603 36.6199 295.773 36.9186 295.784V297C36.7692 297.021 36.6466 297.037 36.5506 297.048C36.4546 297.059 36.3532 297.064 36.2466 297.064C35.9692 297.064 35.7452 296.984 35.5746 296.824C35.4146 296.653 35.3186 296.451 35.2866 296.216L35.2546 295.624C34.8812 296.125 34.4066 296.509 33.8306 296.776C33.2652 297.032 32.6572 297.16 32.0066 297.16ZM32.3746 296.104C32.8759 296.104 33.3399 296.013 33.7666 295.832C34.2039 295.64 34.5346 295.389 34.7586 295.08C34.9612 294.877 35.0626 294.669 35.0626 294.456V293.224C34.3799 292.957 33.6706 292.824 32.9346 292.824C32.2306 292.824 31.6546 292.973 31.2066 293.272C30.7692 293.571 30.5506 293.96 30.5506 294.44C30.5506 294.675 30.5932 294.893 30.6786 295.096C30.7746 295.299 30.9026 295.475 31.0626 295.624C31.2332 295.773 31.4306 295.891 31.6546 295.976C31.8786 296.061 32.1186 296.104 32.3746 296.104ZM45.9699 297H44.5619V292.328C44.5619 291.432 44.4233 290.781 44.1459 290.376C43.8793 289.971 43.4686 289.768 42.9139 289.768C42.6259 289.768 42.3379 289.827 42.0499 289.944C41.7619 290.051 41.4899 290.2 41.2339 290.392C40.9779 290.584 40.7539 290.813 40.5619 291.08C40.3699 291.347 40.2259 291.64 40.1299 291.96V297H38.7219V288.648H40.0019V290.44C40.3326 289.853 40.8073 289.384 41.4259 289.032C42.0553 288.68 42.7379 288.504 43.4739 288.504C43.9539 288.504 44.3539 288.595 44.6739 288.776C44.9939 288.947 45.2499 289.192 45.4419 289.512C45.6339 289.821 45.7673 290.189 45.8419 290.616C45.9273 291.043 45.9699 291.507 45.9699 292.008V297ZM51.5994 297.16C51.0234 297.16 50.4901 297.043 49.9994 296.808C49.5088 296.573 49.0874 296.259 48.7354 295.864C48.3834 295.469 48.1061 295.011 47.9034 294.488C47.7114 293.965 47.6154 293.416 47.6154 292.84C47.6154 292.253 47.7061 291.699 47.8874 291.176C48.0794 290.643 48.3408 290.179 48.6714 289.784C49.0128 289.389 49.4128 289.08 49.8714 288.856C50.3408 288.621 50.8528 288.504 51.4074 288.504C52.0794 288.504 52.6768 288.68 53.1994 289.032C53.7328 289.384 54.1541 289.811 54.4634 290.312V285.32H55.8714V295.272C55.8714 295.603 56.0208 295.773 56.3194 295.784V297C56.1701 297.021 56.0474 297.037 55.9514 297.048C55.8661 297.059 55.7808 297.064 55.6954 297.064C55.4181 297.064 55.1728 296.973 54.9594 296.792C54.7568 296.6 54.6554 296.381 54.6554 296.136V295.432C54.3248 295.976 53.8821 296.403 53.3274 296.712C52.7834 297.011 52.2074 297.16 51.5994 297.16ZM51.9354 295.944C52.1914 295.944 52.4528 295.896 52.7194 295.8C52.9968 295.704 53.2528 295.571 53.4874 295.4C53.7328 295.229 53.9408 295.032 54.1114 294.808C54.2928 294.573 54.4101 294.328 54.4634 294.072V291.672C54.3674 291.405 54.2234 291.155 54.0314 290.92C53.8394 290.675 53.6208 290.467 53.3754 290.296C53.1408 290.115 52.8848 289.976 52.6074 289.88C52.3408 289.773 52.0741 289.72 51.8074 289.72C51.3914 289.72 51.0128 289.811 50.6714 289.992C50.3408 290.163 50.0528 290.397 49.8074 290.696C49.5728 290.984 49.3914 291.32 49.2634 291.704C49.1354 292.077 49.0714 292.461 49.0714 292.856C49.0714 293.272 49.1461 293.672 49.2954 294.056C49.4448 294.429 49.6474 294.755 49.9034 295.032C50.1594 295.309 50.4581 295.533 50.7994 295.704C51.1514 295.864 51.5301 295.944 51.9354 295.944ZM62.3008 285.32H63.7088V294.84C63.7088 295.149 63.7888 295.395 63.9488 295.576C64.1195 295.747 64.3541 295.832 64.6528 295.832C64.7701 295.832 64.9088 295.816 65.0688 295.784C65.2288 295.741 65.3781 295.693 65.5168 295.64L65.7408 296.776C65.5061 296.872 65.2288 296.952 64.9088 297.016C64.5888 297.08 64.3061 297.112 64.0608 297.112C63.5168 297.112 63.0848 296.957 62.7648 296.648C62.4555 296.339 62.3008 295.907 62.3008 295.352V285.32ZM70.5429 297.16C69.9136 297.16 69.3376 297.048 68.8149 296.824C68.2923 296.589 67.8443 296.275 67.4709 295.88C67.0976 295.485 66.8043 295.027 66.5909 294.504C66.3883 293.971 66.2869 293.411 66.2869 292.824C66.2869 292.237 66.3883 291.683 66.5909 291.16C66.8043 290.637 67.0976 290.179 67.4709 289.784C67.8549 289.389 68.3083 289.08 68.8309 288.856C69.3536 288.621 69.9296 288.504 70.5589 288.504C71.1883 288.504 71.7589 288.621 72.2709 288.856C72.7936 289.091 73.2363 289.405 73.5989 289.8C73.9616 290.184 74.2389 290.637 74.4309 291.16C74.6336 291.672 74.7349 292.205 74.7349 292.76C74.7349 292.877 74.7296 292.984 74.7189 293.08C74.7189 293.176 74.7136 293.251 74.7029 293.304H67.7749C67.8069 293.72 67.9029 294.099 68.0629 294.44C68.2229 294.781 68.4309 295.075 68.6869 295.32C68.9429 295.565 69.2309 295.757 69.5509 295.896C69.8816 296.035 70.2283 296.104 70.5909 296.104C70.8469 296.104 71.0976 296.072 71.3429 296.008C71.5883 295.933 71.8176 295.837 72.0309 295.72C72.2443 295.603 72.4309 295.459 72.5909 295.288C72.7616 295.117 72.8896 294.925 72.9749 294.712L74.1909 295.048C74.0523 295.357 73.8603 295.64 73.6149 295.896C73.3803 296.152 73.1029 296.376 72.7829 296.568C72.4736 296.749 72.1269 296.893 71.7429 297C71.3589 297.107 70.9589 297.16 70.5429 297.16ZM73.4069 292.264C73.3749 291.869 73.2736 291.507 73.1029 291.176C72.9429 290.835 72.7349 290.547 72.4789 290.312C72.2336 290.077 71.9456 289.896 71.6149 289.768C71.2843 289.629 70.9323 289.56 70.5589 289.56C70.1856 289.56 69.8336 289.629 69.5029 289.768C69.1723 289.896 68.8789 290.083 68.6229 290.328C68.3776 290.563 68.1749 290.845 68.0149 291.176C67.8656 291.507 67.7749 291.869 67.7429 292.264H73.4069ZM78.4441 297.16C78.0494 297.16 77.6814 297.096 77.3401 296.968C76.9987 296.829 76.7001 296.643 76.4441 296.408C76.1987 296.173 76.0014 295.901 75.8521 295.592C75.7134 295.272 75.6441 294.925 75.6441 294.552C75.6441 294.168 75.7294 293.821 75.9001 293.512C76.0707 293.192 76.3107 292.92 76.6201 292.696C76.9401 292.472 77.3134 292.296 77.7401 292.168C78.1774 292.04 78.6521 291.976 79.1641 291.976C79.5694 291.976 79.9801 292.013 80.3961 292.088C80.8121 292.163 81.1801 292.264 81.5001 292.392V291.72C81.5001 291.037 81.3081 290.504 80.9241 290.12C80.5401 289.725 79.9961 289.528 79.2921 289.528C78.4494 289.528 77.5641 289.853 76.6361 290.504L76.1721 289.592C77.2494 288.867 78.3321 288.504 79.4201 288.504C80.5187 288.504 81.3721 288.797 81.9801 289.384C82.5987 289.971 82.9081 290.797 82.9081 291.864V295.272C82.9081 295.603 83.0574 295.773 83.3561 295.784V297C83.2067 297.021 83.0841 297.037 82.9881 297.048C82.8921 297.059 82.7907 297.064 82.6841 297.064C82.4067 297.064 82.1827 296.984 82.0121 296.824C81.8521 296.653 81.7561 296.451 81.7241 296.216L81.6921 295.624C81.3187 296.125 80.8441 296.509 80.2681 296.776C79.7027 297.032 79.0947 297.16 78.4441 297.16ZM78.8121 296.104C79.3134 296.104 79.7774 296.013 80.2041 295.832C80.6414 295.64 80.9721 295.389 81.1961 295.08C81.3987 294.877 81.5001 294.669 81.5001 294.456V293.224C80.8174 292.957 80.1081 292.824 79.3721 292.824C78.6681 292.824 78.0921 292.973 77.6441 293.272C77.2067 293.571 76.9881 293.96 76.9881 294.44C76.9881 294.675 77.0307 294.893 77.1161 295.096C77.2121 295.299 77.3401 295.475 77.5001 295.624C77.6707 295.773 77.8681 295.891 78.0921 295.976C78.3161 296.061 78.5561 296.104 78.8121 296.104ZM89.5754 289.88C88.8714 289.901 88.2474 290.083 87.7034 290.424C87.1701 290.765 86.7914 291.24 86.5674 291.848V297H85.1594V288.648H86.4714V290.584C86.7594 290.008 87.1381 289.544 87.6074 289.192C88.0768 288.829 88.5781 288.627 89.1114 288.584C89.2181 288.584 89.3088 288.584 89.3834 288.584C89.4581 288.584 89.5221 288.589 89.5754 288.6V289.88ZM98.2199 297H96.8119V292.328C96.8119 291.432 96.6733 290.781 96.3959 290.376C96.1293 289.971 95.7186 289.768 95.1639 289.768C94.8759 289.768 94.5879 289.827 94.2999 289.944C94.0119 290.051 93.7399 290.2 93.4839 290.392C93.2279 290.584 93.0039 290.813 92.8119 291.08C92.6199 291.347 92.4759 291.64 92.3799 291.96V297H90.9719V288.648H92.2519V290.44C92.5826 289.853 93.0573 289.384 93.6759 289.032C94.3053 288.68 94.9879 288.504 95.7239 288.504C96.2039 288.504 96.6039 288.595 96.9239 288.776C97.2439 288.947 97.4999 289.192 97.6919 289.512C97.8839 289.821 98.0173 290.189 98.0919 290.616C98.1773 291.043 98.2199 291.507 98.2199 292.008V297Z" fill="white"/>
</g>
<defs>
<clipPath id="clip0">
<rect width="295" height="432" fill="white"/>
</clipPath>
</defs>
</svg>
